<mxfile host="drawio-plugin" modified="2022-09-04T12:29:39.486Z" agent="5.0 (Windows NT 6.2; Win64; x64) AppleWebKit/537.36 (KHTML, like Gecko) Chrome/98.0.4758.102 Safari/537.36" etag="m_OlrKDEgq7noLooGeU4" version="15.5.4" type="embed"><diagram id="16wEB_wt3NdpS7BqnM1o" name="Page-1"><mxGraphModel dx="1391" dy="2414" grid="1" gridSize="10" guides="1" tooltips="1" connect="1" arrows="1" fold="1" page="1" pageScale="1" pageWidth="850" pageHeight="1100" math="0" shadow="0"><root><mxCell id="0"/><mxCell id="1" parent="0"/><mxCell id="exXWcmX4bOZxcQR9XMoQ-3" value="" style="edgeStyle=orthogonalEdgeStyle;rounded=0;orthogonalLoop=1;jettySize=auto;html=1;" parent="1" source="exXWcmX4bOZxcQR9XMoQ-1" target="exXWcmX4bOZxcQR9XMoQ-2" edge="1"><mxGeometry relative="1" as="geometry"/></mxCell><mxCell id="exXWcmX4bOZxcQR9XMoQ-5" value="" style="edgeStyle=orthogonalEdgeStyle;rounded=0;orthogonalLoop=1;jettySize=auto;html=1;" parent="1" source="exXWcmX4bOZxcQR9XMoQ-1" target="exXWcmX4bOZxcQR9XMoQ-4" edge="1"><mxGeometry relative="1" as="geometry"/></mxCell><mxCell id="exXWcmX4bOZxcQR9XMoQ-1" value="Task 4" style="whiteSpace=wrap;html=1;aspect=fixed;fillColor=#f8cecc;strokeColor=#b85450;" parent="1" vertex="1"><mxGeometry x="400" y="240" width="80" height="80" as="geometry"/></mxCell><mxCell id="exXWcmX4bOZxcQR9XMoQ-9" value="" style="edgeStyle=orthogonalEdgeStyle;rounded=0;orthogonalLoop=1;jettySize=auto;html=1;" parent="1" source="exXWcmX4bOZxcQR9XMoQ-4" target="exXWcmX4bOZxcQR9XMoQ-8" edge="1"><mxGeometry relative="1" as="geometry"/></mxCell><mxCell id="9oeMaHV2w1BKaAyBSRpe-8" value="" style="edgeStyle=orthogonalEdgeStyle;rounded=0;orthogonalLoop=1;jettySize=auto;html=1;" parent="1" source="exXWcmX4bOZxcQR9XMoQ-4" target="9oeMaHV2w1BKaAyBSRpe-7" edge="1"><mxGeometry relative="1" as="geometry"/></mxCell><mxCell id="exXWcmX4bOZxcQR9XMoQ-4" value="Non-Functional Requirements" style="whiteSpace=wrap;html=1;aspect=fixed;" parent="1" vertex="1"><mxGeometry x="560" y="240" width="80" height="80" as="geometry"/></mxCell><mxCell id="9oeMaHV2w1BKaAyBSRpe-10" value="" style="edgeStyle=orthogonalEdgeStyle;rounded=0;orthogonalLoop=1;jettySize=auto;html=1;" parent="1" source="9oeMaHV2w1BKaAyBSRpe-7" target="9oeMaHV2w1BKaAyBSRpe-9" edge="1"><mxGeometry relative="1" as="geometry"/></mxCell><mxCell id="9oeMaHV2w1BKaAyBSRpe-7" value="Legal" style="whiteSpace=wrap;html=1;aspect=fixed;" parent="1" vertex="1"><mxGeometry x="560" y="80" width="80" height="80" as="geometry"/></mxCell><mxCell id="9oeMaHV2w1BKaAyBSRpe-9" value="Data safety" style="whiteSpace=wrap;html=1;aspect=fixed;" parent="1" vertex="1"><mxGeometry x="640" y="-40" width="80" height="80" as="geometry"/></mxCell><mxCell id="exXWcmX4bOZxcQR9XMoQ-11" value="" style="edgeStyle=orthogonalEdgeStyle;rounded=0;orthogonalLoop=1;jettySize=auto;html=1;" parent="1" source="exXWcmX4bOZxcQR9XMoQ-8" target="exXWcmX4bOZxcQR9XMoQ-10" edge="1"><mxGeometry relative="1" as="geometry"><Array as="points"><mxPoint x="770" y="80"/></Array></mxGeometry></mxCell><mxCell id="exXWcmX4bOZxcQR9XMoQ-13" value="" style="edgeStyle=orthogonalEdgeStyle;rounded=0;orthogonalLoop=1;jettySize=auto;html=1;" parent="1" source="exXWcmX4bOZxcQR9XMoQ-8" target="exXWcmX4bOZxcQR9XMoQ-12" edge="1"><mxGeometry relative="1" as="geometry"><Array as="points"><mxPoint x="770" y="320"/></Array></mxGeometry></mxCell><mxCell id="exXWcmX4bOZxcQR9XMoQ-15" value="" style="edgeStyle=orthogonalEdgeStyle;rounded=0;orthogonalLoop=1;jettySize=auto;html=1;" parent="1" source="exXWcmX4bOZxcQR9XMoQ-8" target="exXWcmX4bOZxcQR9XMoQ-14" edge="1"><mxGeometry relative="1" as="geometry"/></mxCell><mxCell id="exXWcmX4bOZxcQR9XMoQ-8" value="Aesthetics" style="whiteSpace=wrap;html=1;aspect=fixed;" parent="1" vertex="1"><mxGeometry x="720" y="160" width="80" height="80" as="geometry"/></mxCell><mxCell id="exXWcmX4bOZxcQR9XMoQ-14" value="Ascii Video" style="whiteSpace=wrap;html=1;aspect=fixed;" parent="1" vertex="1"><mxGeometry x="880" y="160" width="80" height="80" as="geometry"/></mxCell><mxCell id="exXWcmX4bOZxcQR9XMoQ-12" value="Ascii Images" style="whiteSpace=wrap;html=1;aspect=fixed;" parent="1" vertex="1"><mxGeometry x="880" y="280" width="80" height="80" as="geometry"/></mxCell><mxCell id="exXWcmX4bOZxcQR9XMoQ-10" value="Coloured Text" style="whiteSpace=wrap;html=1;aspect=fixed;" parent="1" vertex="1"><mxGeometry x="880" y="40" width="80" height="80" as="geometry"/></mxCell><mxCell id="9oeMaHV2w1BKaAyBSRpe-2" value="" style="edgeStyle=orthogonalEdgeStyle;rounded=0;orthogonalLoop=1;jettySize=auto;html=1;" parent="1" source="exXWcmX4bOZxcQR9XMoQ-2" target="9oeMaHV2w1BKaAyBSRpe-1" edge="1"><mxGeometry relative="1" as="geometry"/></mxCell><mxCell id="9oeMaHV2w1BKaAyBSRpe-14" value="" style="edgeStyle=orthogonalEdgeStyle;rounded=0;orthogonalLoop=1;jettySize=auto;html=1;" parent="1" source="exXWcmX4bOZxcQR9XMoQ-2" target="9oeMaHV2w1BKaAyBSRpe-13" edge="1"><mxGeometry relative="1" as="geometry"/></mxCell><mxCell id="exXWcmX4bOZxcQR9XMoQ-2" value="Functional Requirements" style="whiteSpace=wrap;html=1;aspect=fixed;" parent="1" vertex="1"><mxGeometry x="240" y="240" width="80" height="80" as="geometry"/></mxCell><mxCell id="9oeMaHV2w1BKaAyBSRpe-16" value="" style="edgeStyle=orthogonalEdgeStyle;rounded=0;orthogonalLoop=1;jettySize=auto;html=1;" parent="1" source="9oeMaHV2w1BKaAyBSRpe-13" target="9oeMaHV2w1BKaAyBSRpe-15" edge="1"><mxGeometry relative="1" as="geometry"/></mxCell><mxCell id="bLnrD6sXtMgKVIhdGeOb-2" value="" style="edgeStyle=orthogonalEdgeStyle;rounded=0;orthogonalLoop=1;jettySize=auto;html=1;" parent="1" source="9oeMaHV2w1BKaAyBSRpe-13" target="bLnrD6sXtMgKVIhdGeOb-1" edge="1"><mxGeometry relative="1" as="geometry"/></mxCell><mxCell id="9oeMaHV2w1BKaAyBSRpe-13" value="Start Game" style="whiteSpace=wrap;html=1;aspect=fixed;" parent="1" vertex="1"><mxGeometry x="80" y="240" width="80" height="80" as="geometry"/></mxCell><mxCell id="bLnrD6sXtMgKVIhdGeOb-1" value="Initialise character" style="whiteSpace=wrap;html=1;aspect=fixed;fillColor=#dae8fc;strokeColor=#6c8ebf;" parent="1" vertex="1"><mxGeometry x="-40" y="240" width="80" height="80" as="geometry"/></mxCell><mxCell id="9oeMaHV2w1BKaAyBSRpe-18" value="" style="edgeStyle=orthogonalEdgeStyle;rounded=0;orthogonalLoop=1;jettySize=auto;html=1;" parent="1" source="9oeMaHV2w1BKaAyBSRpe-15" target="9oeMaHV2w1BKaAyBSRpe-17" edge="1"><mxGeometry relative="1" as="geometry"/></mxCell><mxCell id="9oeMaHV2w1BKaAyBSRpe-15" value="Go to a new school for study" style="whiteSpace=wrap;html=1;aspect=fixed;" parent="1" vertex="1"><mxGeometry x="80" y="400" width="80" height="80" as="geometry"/></mxCell><mxCell id="9oeMaHV2w1BKaAyBSRpe-53" value="" style="edgeStyle=orthogonalEdgeStyle;rounded=0;orthogonalLoop=1;jettySize=auto;html=1;" parent="1" source="9oeMaHV2w1BKaAyBSRpe-17" target="9oeMaHV2w1BKaAyBSRpe-52" edge="1"><mxGeometry relative="1" as="geometry"/></mxCell><mxCell id="9oeMaHV2w1BKaAyBSRpe-17" value="Make friends with one of ur roommates" style="whiteSpace=wrap;html=1;aspect=fixed;" parent="1" vertex="1"><mxGeometry x="200" y="400" width="80" height="80" as="geometry"/></mxCell><mxCell id="9oeMaHV2w1BKaAyBSRpe-55" value="" style="edgeStyle=orthogonalEdgeStyle;rounded=0;orthogonalLoop=1;jettySize=auto;html=1;" parent="1" source="9oeMaHV2w1BKaAyBSRpe-52" target="9oeMaHV2w1BKaAyBSRpe-54" edge="1"><mxGeometry relative="1" as="geometry"/></mxCell><mxCell id="9oeMaHV2w1BKaAyBSRpe-52" value="Go to school" style="whiteSpace=wrap;html=1;aspect=fixed;" parent="1" vertex="1"><mxGeometry x="320" y="400" width="80" height="80" as="geometry"/></mxCell><mxCell id="9oeMaHV2w1BKaAyBSRpe-57" value="" style="edgeStyle=orthogonalEdgeStyle;rounded=0;orthogonalLoop=1;jettySize=auto;html=1;" parent="1" source="9oeMaHV2w1BKaAyBSRpe-54" target="9oeMaHV2w1BKaAyBSRpe-56" edge="1"><mxGeometry relative="1" as="geometry"/></mxCell><mxCell id="9oeMaHV2w1BKaAyBSRpe-54" value="School" style="whiteSpace=wrap;html=1;aspect=fixed;fillColor=#e1d5e7;strokeColor=#9673a6;" parent="1" vertex="1"><mxGeometry x="440" y="400" width="80" height="80" as="geometry"/></mxCell><mxCell id="9oeMaHV2w1BKaAyBSRpe-59" value="" style="edgeStyle=orthogonalEdgeStyle;rounded=0;orthogonalLoop=1;jettySize=auto;html=1;" parent="1" source="9oeMaHV2w1BKaAyBSRpe-56" target="9oeMaHV2w1BKaAyBSRpe-58" edge="1"><mxGeometry relative="1" as="geometry"/></mxCell><mxCell id="9oeMaHV2w1BKaAyBSRpe-56" value="Hear a rumour about a missing student" style="whiteSpace=wrap;html=1;aspect=fixed;" parent="1" vertex="1"><mxGeometry x="560" y="400" width="80" height="80" as="geometry"/></mxCell><mxCell id="9oeMaHV2w1BKaAyBSRpe-61" value="" style="edgeStyle=orthogonalEdgeStyle;rounded=0;orthogonalLoop=1;jettySize=auto;html=1;" parent="1" source="9oeMaHV2w1BKaAyBSRpe-58" target="9oeMaHV2w1BKaAyBSRpe-60" edge="1"><mxGeometry relative="1" as="geometry"/></mxCell><mxCell id="9oeMaHV2w1BKaAyBSRpe-58" value="Sleep" style="whiteSpace=wrap;html=1;aspect=fixed;" parent="1" vertex="1"><mxGeometry x="680" y="400" width="80" height="80" as="geometry"/></mxCell><mxCell id="t13P5igCK74DCk57Ueyg-117" value="" style="edgeStyle=orthogonalEdgeStyle;rounded=0;orthogonalLoop=1;jettySize=auto;html=1;" parent="1" source="9oeMaHV2w1BKaAyBSRpe-60" edge="1"><mxGeometry relative="1" as="geometry"><mxPoint x="920" y="440" as="targetPoint"/></mxGeometry></mxCell><mxCell id="9oeMaHV2w1BKaAyBSRpe-60" value="Wake up and get into a battle with a demon on the foot of bed" style="whiteSpace=wrap;html=1;aspect=fixed;comic=0;" parent="1" vertex="1"><mxGeometry x="800" y="400" width="80" height="80" as="geometry"/></mxCell><mxCell id="qQBoI6LvPJPEByH0ZdB4-10" value="" style="edgeStyle=orthogonalEdgeStyle;rounded=0;orthogonalLoop=1;jettySize=auto;html=1;" parent="1" source="t13P5igCK74DCk57Ueyg-116" target="qQBoI6LvPJPEByH0ZdB4-9" edge="1"><mxGeometry relative="1" as="geometry"/></mxCell><mxCell id="qQBoI6LvPJPEByH0ZdB4-12" value="" style="edgeStyle=orthogonalEdgeStyle;rounded=0;orthogonalLoop=1;jettySize=auto;html=1;" parent="1" source="t13P5igCK74DCk57Ueyg-116" target="qQBoI6LvPJPEByH0ZdB4-11" edge="1"><mxGeometry relative="1" as="geometry"/></mxCell><mxCell id="t13P5igCK74DCk57Ueyg-116" value="Battle" style="whiteSpace=wrap;html=1;aspect=fixed;comic=0;fillColor=#fff2cc;strokeColor=#d6b656;" parent="1" vertex="1"><mxGeometry x="1040" y="400" width="80" height="80" as="geometry"/></mxCell><mxCell id="qQBoI6LvPJPEByH0ZdB4-18" value="" style="edgeStyle=orthogonalEdgeStyle;rounded=0;orthogonalLoop=1;jettySize=auto;html=1;" parent="1" source="qQBoI6LvPJPEByH0ZdB4-11" target="qQBoI6LvPJPEByH0ZdB4-17" edge="1"><mxGeometry relative="1" as="geometry"/></mxCell><mxCell id="qQBoI6LvPJPEByH0ZdB4-11" value="You win" style="whiteSpace=wrap;html=1;aspect=fixed;comic=0;" parent="1" vertex="1"><mxGeometry x="1160" y="400" width="80" height="80" as="geometry"/></mxCell><mxCell id="qQBoI6LvPJPEByH0ZdB4-20" value="" style="edgeStyle=orthogonalEdgeStyle;rounded=0;orthogonalLoop=1;jettySize=auto;html=1;" parent="1" source="qQBoI6LvPJPEByH0ZdB4-17" target="qQBoI6LvPJPEByH0ZdB4-19" edge="1"><mxGeometry relative="1" as="geometry"/></mxCell><mxCell id="qQBoI6LvPJPEByH0ZdB4-17" value="Your friend fills you in about the other world and monsters" style="whiteSpace=wrap;html=1;aspect=fixed;comic=0;" parent="1" vertex="1"><mxGeometry x="1280" y="400" width="80" height="80" as="geometry"/></mxCell><mxCell id="qQBoI6LvPJPEByH0ZdB4-22" value="" style="edgeStyle=orthogonalEdgeStyle;rounded=0;orthogonalLoop=1;jettySize=auto;html=1;" parent="1" source="qQBoI6LvPJPEByH0ZdB4-19" target="qQBoI6LvPJPEByH0ZdB4-21" edge="1"><mxGeometry relative="1" as="geometry"/></mxCell><mxCell id="qQBoI6LvPJPEByH0ZdB4-24" value="" style="edgeStyle=orthogonalEdgeStyle;rounded=0;orthogonalLoop=1;jettySize=auto;html=1;" parent="1" source="qQBoI6LvPJPEByH0ZdB4-19" target="qQBoI6LvPJPEByH0ZdB4-23" edge="1"><mxGeometry relative="1" as="geometry"/></mxCell><mxCell id="qQBoI6LvPJPEByH0ZdB4-19" value="You can either&amp;nbsp;" style="whiteSpace=wrap;html=1;aspect=fixed;comic=0;" parent="1" vertex="1"><mxGeometry x="1400" y="400" width="80" height="80" as="geometry"/></mxCell><mxCell id="qQBoI6LvPJPEByH0ZdB4-28" value="" style="edgeStyle=orthogonalEdgeStyle;rounded=0;orthogonalLoop=1;jettySize=auto;html=1;" parent="1" source="qQBoI6LvPJPEByH0ZdB4-23" target="qQBoI6LvPJPEByH0ZdB4-27" edge="1"><mxGeometry relative="1" as="geometry"/></mxCell><mxCell id="qQBoI6LvPJPEByH0ZdB4-23" value="continue the story" style="whiteSpace=wrap;html=1;aspect=fixed;comic=0;" parent="1" vertex="1"><mxGeometry x="1520" y="480" width="80" height="80" as="geometry"/></mxCell><mxCell id="qQBoI6LvPJPEByH0ZdB4-27" value="Game Formula" style="whiteSpace=wrap;html=1;aspect=fixed;comic=0;fillColor=#ffe6cc;strokeColor=#d79b00;" parent="1" vertex="1"><mxGeometry x="1640" y="480" width="80" height="80" as="geometry"/></mxCell><mxCell id="qQBoI6LvPJPEByH0ZdB4-26" value="" style="edgeStyle=orthogonalEdgeStyle;rounded=0;orthogonalLoop=1;jettySize=auto;html=1;" parent="1" source="qQBoI6LvPJPEByH0ZdB4-21" target="qQBoI6LvPJPEByH0ZdB4-25" edge="1"><mxGeometry relative="1" as="geometry"/></mxCell><mxCell id="qQBoI6LvPJPEByH0ZdB4-21" value="Nope out of the school after that encounter" style="whiteSpace=wrap;html=1;aspect=fixed;comic=0;" parent="1" vertex="1"><mxGeometry x="1520" y="320" width="80" height="80" as="geometry"/></mxCell><mxCell id="qQBoI6LvPJPEByH0ZdB4-25" value="bad ending" style="whiteSpace=wrap;html=1;aspect=fixed;comic=0;fillColor=#f8cecc;strokeColor=#b85450;" parent="1" vertex="1"><mxGeometry x="1640" y="320" width="80" height="80" as="geometry"/></mxCell><mxCell id="qQBoI6LvPJPEByH0ZdB4-16" value="" style="edgeStyle=orthogonalEdgeStyle;rounded=0;orthogonalLoop=1;jettySize=auto;html=1;" parent="1" source="qQBoI6LvPJPEByH0ZdB4-9" target="qQBoI6LvPJPEByH0ZdB4-15" edge="1"><mxGeometry relative="1" as="geometry"/></mxCell><mxCell id="qQBoI6LvPJPEByH0ZdB4-9" value="You lose" style="whiteSpace=wrap;html=1;aspect=fixed;comic=0;" parent="1" vertex="1"><mxGeometry x="1040" y="520" width="80" height="80" as="geometry"/></mxCell><mxCell id="qQBoI6LvPJPEByH0ZdB4-15" value="Die" style="whiteSpace=wrap;html=1;aspect=fixed;comic=0;fillColor=#f8cecc;strokeColor=#b85450;" parent="1" vertex="1"><mxGeometry x="1040" y="640" width="80" height="80" as="geometry"/></mxCell><mxCell id="9oeMaHV2w1BKaAyBSRpe-4" value="" style="edgeStyle=orthogonalEdgeStyle;rounded=0;orthogonalLoop=1;jettySize=auto;html=1;" parent="1" source="9oeMaHV2w1BKaAyBSRpe-1" target="9oeMaHV2w1BKaAyBSRpe-3" edge="1"><mxGeometry relative="1" as="geometry"/></mxCell><mxCell id="9oeMaHV2w1BKaAyBSRpe-1" value="User interaction" style="whiteSpace=wrap;html=1;aspect=fixed;" parent="1" vertex="1"><mxGeometry x="240" y="80" width="80" height="80" as="geometry"/></mxCell><mxCell id="9oeMaHV2w1BKaAyBSRpe-6" value="" style="edgeStyle=orthogonalEdgeStyle;rounded=0;orthogonalLoop=1;jettySize=auto;html=1;exitX=0.5;exitY=0;exitDx=0;exitDy=0;" parent="1" source="9oeMaHV2w1BKaAyBSRpe-1" target="9oeMaHV2w1BKaAyBSRpe-5" edge="1"><mxGeometry relative="1" as="geometry"/></mxCell><mxCell id="9oeMaHV2w1BKaAyBSRpe-3" value="Text input" style="whiteSpace=wrap;html=1;aspect=fixed;" parent="1" vertex="1"><mxGeometry x="320" y="-40" width="80" height="80" as="geometry"/></mxCell><mxCell id="9oeMaHV2w1BKaAyBSRpe-5" value="Text output" style="whiteSpace=wrap;html=1;aspect=fixed;" parent="1" vertex="1"><mxGeometry x="160" y="-40" width="80" height="80" as="geometry"/></mxCell><mxCell id="9oeMaHV2w1BKaAyBSRpe-11" value="Copyright" style="whiteSpace=wrap;html=1;aspect=fixed;" parent="1" vertex="1"><mxGeometry x="480" y="-40" width="80" height="80" as="geometry"/></mxCell><mxCell id="9oeMaHV2w1BKaAyBSRpe-12" value="" style="edgeStyle=orthogonalEdgeStyle;rounded=0;orthogonalLoop=1;jettySize=auto;html=1;exitX=0.5;exitY=0;exitDx=0;exitDy=0;entryX=0.5;entryY=1;entryDx=0;entryDy=0;" parent="1" source="9oeMaHV2w1BKaAyBSRpe-7" target="9oeMaHV2w1BKaAyBSRpe-11" edge="1"><mxGeometry relative="1" as="geometry"><mxPoint x="600" y="80" as="sourcePoint"/><mxPoint x="680" y="20" as="targetPoint"/></mxGeometry></mxCell><mxCell id="9oeMaHV2w1BKaAyBSRpe-24" value="" style="edgeStyle=orthogonalEdgeStyle;rounded=0;orthogonalLoop=1;jettySize=auto;html=1;" parent="1" source="9oeMaHV2w1BKaAyBSRpe-22" target="9oeMaHV2w1BKaAyBSRpe-23" edge="1"><mxGeometry relative="1" as="geometry"/></mxCell><mxCell id="9oeMaHV2w1BKaAyBSRpe-22" value="School" style="whiteSpace=wrap;html=1;aspect=fixed;fillColor=#e1d5e7;strokeColor=#9673a6;" parent="1" vertex="1"><mxGeometry x="-280" y="-240" width="80" height="80" as="geometry"/></mxCell><mxCell id="9oeMaHV2w1BKaAyBSRpe-26" value="" style="edgeStyle=orthogonalEdgeStyle;rounded=0;orthogonalLoop=1;jettySize=auto;html=1;exitX=0.5;exitY=0;exitDx=0;exitDy=0;" parent="1" source="9oeMaHV2w1BKaAyBSRpe-23" target="9oeMaHV2w1BKaAyBSRpe-25" edge="1"><mxGeometry relative="1" as="geometry"/></mxCell><mxCell id="9oeMaHV2w1BKaAyBSRpe-30" value="" style="edgeStyle=orthogonalEdgeStyle;rounded=0;orthogonalLoop=1;jettySize=auto;html=1;exitX=0.5;exitY=0;exitDx=0;exitDy=0;" parent="1" source="9oeMaHV2w1BKaAyBSRpe-23" target="9oeMaHV2w1BKaAyBSRpe-29" edge="1"><mxGeometry relative="1" as="geometry"/></mxCell><mxCell id="9oeMaHV2w1BKaAyBSRpe-23" value="random" style="whiteSpace=wrap;html=1;aspect=fixed;fillColor=#dae8fc;strokeColor=#6c8ebf;" parent="1" vertex="1"><mxGeometry x="-280" y="-400" width="80" height="80" as="geometry"/></mxCell><mxCell id="9oeMaHV2w1BKaAyBSRpe-32" value="" style="edgeStyle=orthogonalEdgeStyle;rounded=0;orthogonalLoop=1;jettySize=auto;html=1;" parent="1" target="9oeMaHV2w1BKaAyBSRpe-31" edge="1"><mxGeometry relative="1" as="geometry"><mxPoint x="-360" y="-523" as="sourcePoint"/><Array as="points"><mxPoint x="-360" y="-560"/><mxPoint x="-530" y="-560"/></Array></mxGeometry></mxCell><mxCell id="9oeMaHV2w1BKaAyBSRpe-29" value="maths" style="whiteSpace=wrap;html=1;aspect=fixed;fillColor=#dae8fc;strokeColor=#6c8ebf;" parent="1" vertex="1"><mxGeometry x="-400" y="-520" width="80" height="80" as="geometry"/></mxCell><mxCell id="9oeMaHV2w1BKaAyBSRpe-34" value="" style="edgeStyle=orthogonalEdgeStyle;rounded=0;orthogonalLoop=1;jettySize=auto;html=1;" parent="1" source="9oeMaHV2w1BKaAyBSRpe-31" target="9oeMaHV2w1BKaAyBSRpe-33" edge="1"><mxGeometry relative="1" as="geometry"/></mxCell><mxCell id="9oeMaHV2w1BKaAyBSRpe-31" value="2 random numbers between 1 and 20" style="whiteSpace=wrap;html=1;aspect=fixed;fillColor=#dae8fc;strokeColor=#6c8ebf;" parent="1" vertex="1"><mxGeometry x="-560" y="-680" width="80" height="80" as="geometry"/></mxCell><mxCell id="9oeMaHV2w1BKaAyBSRpe-36" value="" style="edgeStyle=orthogonalEdgeStyle;rounded=0;orthogonalLoop=1;jettySize=auto;html=1;exitX=0.5;exitY=0;exitDx=0;exitDy=0;" parent="1" source="9oeMaHV2w1BKaAyBSRpe-33" target="9oeMaHV2w1BKaAyBSRpe-35" edge="1"><mxGeometry relative="1" as="geometry"/></mxCell><mxCell id="9oeMaHV2w1BKaAyBSRpe-38" value="" style="edgeStyle=orthogonalEdgeStyle;rounded=0;orthogonalLoop=1;jettySize=auto;html=1;" parent="1" source="9oeMaHV2w1BKaAyBSRpe-33" target="9oeMaHV2w1BKaAyBSRpe-37" edge="1"><mxGeometry relative="1" as="geometry"/></mxCell><mxCell id="9oeMaHV2w1BKaAyBSRpe-41" value="" style="edgeStyle=orthogonalEdgeStyle;rounded=0;orthogonalLoop=1;jettySize=auto;html=1;" parent="1" source="9oeMaHV2w1BKaAyBSRpe-33" target="9oeMaHV2w1BKaAyBSRpe-40" edge="1"><mxGeometry relative="1" as="geometry"/></mxCell><mxCell id="9oeMaHV2w1BKaAyBSRpe-33" value="random + or -&amp;nbsp;" style="whiteSpace=wrap;html=1;aspect=fixed;fillColor=#dae8fc;strokeColor=#6c8ebf;" parent="1" vertex="1"><mxGeometry x="-560" y="-800" width="80" height="80" as="geometry"/></mxCell><mxCell id="9oeMaHV2w1BKaAyBSRpe-51" value="" style="edgeStyle=orthogonalEdgeStyle;rounded=0;orthogonalLoop=1;jettySize=auto;html=1;entryX=0.5;entryY=1;entryDx=0;entryDy=0;" parent="1" source="9oeMaHV2w1BKaAyBSRpe-40" target="9oeMaHV2w1BKaAyBSRpe-48" edge="1"><mxGeometry relative="1" as="geometry"><mxPoint x="-440" y="-1000" as="targetPoint"/><Array as="points"><mxPoint x="-440" y="-960"/><mxPoint x="-520" y="-960"/></Array></mxGeometry></mxCell><mxCell id="9oeMaHV2w1BKaAyBSRpe-40" value="incorrect" style="whiteSpace=wrap;html=1;aspect=fixed;fillColor=#dae8fc;strokeColor=#6c8ebf;" parent="1" vertex="1"><mxGeometry x="-480" y="-920" width="80" height="80" as="geometry"/></mxCell><mxCell id="9oeMaHV2w1BKaAyBSRpe-49" value="" style="edgeStyle=orthogonalEdgeStyle;rounded=0;orthogonalLoop=1;jettySize=auto;html=1;" parent="1" source="9oeMaHV2w1BKaAyBSRpe-37" target="9oeMaHV2w1BKaAyBSRpe-48" edge="1"><mxGeometry relative="1" as="geometry"><Array as="points"><mxPoint x="-600" y="-960"/><mxPoint x="-520" y="-960"/></Array></mxGeometry></mxCell><mxCell id="9oeMaHV2w1BKaAyBSRpe-37" value="correct not in 5 seconds" style="whiteSpace=wrap;html=1;aspect=fixed;fillColor=#dae8fc;strokeColor=#6c8ebf;" parent="1" vertex="1"><mxGeometry x="-640" y="-920" width="80" height="80" as="geometry"/></mxCell><mxCell id="9oeMaHV2w1BKaAyBSRpe-48" value="return False" style="whiteSpace=wrap;html=1;aspect=fixed;fillColor=#dae8fc;strokeColor=#6c8ebf;" parent="1" vertex="1"><mxGeometry x="-560" y="-1160" width="80" height="80" as="geometry"/></mxCell><mxCell id="9oeMaHV2w1BKaAyBSRpe-45" value="" style="edgeStyle=orthogonalEdgeStyle;rounded=0;orthogonalLoop=1;jettySize=auto;html=1;" parent="1" source="9oeMaHV2w1BKaAyBSRpe-35" target="9oeMaHV2w1BKaAyBSRpe-44" edge="1"><mxGeometry relative="1" as="geometry"/></mxCell><mxCell id="9oeMaHV2w1BKaAyBSRpe-35" value="correct within 5 seconds" style="whiteSpace=wrap;html=1;aspect=fixed;fillColor=#dae8fc;strokeColor=#6c8ebf;" parent="1" vertex="1"><mxGeometry x="-760" y="-920" width="80" height="80" as="geometry"/></mxCell><mxCell id="9oeMaHV2w1BKaAyBSRpe-47" value="" style="edgeStyle=orthogonalEdgeStyle;rounded=0;orthogonalLoop=1;jettySize=auto;html=1;" parent="1" source="9oeMaHV2w1BKaAyBSRpe-44" target="9oeMaHV2w1BKaAyBSRpe-46" edge="1"><mxGeometry relative="1" as="geometry"/></mxCell><mxCell id="9oeMaHV2w1BKaAyBSRpe-44" value="make maxPP higher" style="whiteSpace=wrap;html=1;aspect=fixed;fillColor=#dae8fc;strokeColor=#6c8ebf;" parent="1" vertex="1"><mxGeometry x="-760" y="-1040" width="80" height="80" as="geometry"/></mxCell><mxCell id="9oeMaHV2w1BKaAyBSRpe-46" value="return True" style="whiteSpace=wrap;html=1;aspect=fixed;fillColor=#dae8fc;strokeColor=#6c8ebf;" parent="1" vertex="1"><mxGeometry x="-760" y="-1160" width="80" height="80" as="geometry"/></mxCell><mxCell id="t13P5igCK74DCk57Ueyg-18" value="" style="edgeStyle=orthogonalEdgeStyle;rounded=0;orthogonalLoop=1;jettySize=auto;html=1;exitX=0.5;exitY=0;exitDx=0;exitDy=0;" parent="1" source="9oeMaHV2w1BKaAyBSRpe-25" target="t13P5igCK74DCk57Ueyg-17" edge="1"><mxGeometry relative="1" as="geometry"/></mxCell><mxCell id="9oeMaHV2w1BKaAyBSRpe-25" value="Art" style="whiteSpace=wrap;html=1;aspect=fixed;fillColor=#dae8fc;strokeColor=#6c8ebf;" parent="1" vertex="1"><mxGeometry x="-160" y="-520" width="80" height="80" as="geometry"/></mxCell><mxCell id="t13P5igCK74DCk57Ueyg-21" value="" style="edgeStyle=orthogonalEdgeStyle;rounded=0;orthogonalLoop=1;jettySize=auto;html=1;" parent="1" source="t13P5igCK74DCk57Ueyg-17" target="t13P5igCK74DCk57Ueyg-20" edge="1"><mxGeometry relative="1" as="geometry"/></mxCell><mxCell id="t13P5igCK74DCk57Ueyg-17" value="Art" style="whiteSpace=wrap;html=1;aspect=fixed;fillColor=#dae8fc;strokeColor=#6c8ebf;" parent="1" vertex="1"><mxGeometry y="-680" width="80" height="80" as="geometry"/></mxCell><mxCell id="t13P5igCK74DCk57Ueyg-23" value="" style="edgeStyle=orthogonalEdgeStyle;rounded=0;orthogonalLoop=1;jettySize=auto;html=1;" parent="1" source="t13P5igCK74DCk57Ueyg-20" target="t13P5igCK74DCk57Ueyg-22" edge="1"><mxGeometry relative="1" as="geometry"/></mxCell><mxCell id="t13P5igCK74DCk57Ueyg-20" value="Diplays a random artists work in ascii" style="whiteSpace=wrap;html=1;aspect=fixed;fillColor=#dae8fc;strokeColor=#6c8ebf;" parent="1" vertex="1"><mxGeometry y="-800" width="80" height="80" as="geometry"/></mxCell><mxCell id="t13P5igCK74DCk57Ueyg-25" value="" style="edgeStyle=orthogonalEdgeStyle;rounded=0;orthogonalLoop=1;jettySize=auto;html=1;" parent="1" source="t13P5igCK74DCk57Ueyg-22" target="t13P5igCK74DCk57Ueyg-24" edge="1"><mxGeometry relative="1" as="geometry"/></mxCell><mxCell id="t13P5igCK74DCk57Ueyg-22" value="User guesses artist (shouldn't be too hard)" style="whiteSpace=wrap;html=1;aspect=fixed;fillColor=#dae8fc;strokeColor=#6c8ebf;" parent="1" vertex="1"><mxGeometry y="-920" width="80" height="80" as="geometry"/></mxCell><mxCell id="t13P5igCK74DCk57Ueyg-24" value="Correct" style="whiteSpace=wrap;html=1;aspect=fixed;fillColor=#dae8fc;strokeColor=#6c8ebf;" parent="1" vertex="1"><mxGeometry x="-80" y="-1040" width="80" height="80" as="geometry"/></mxCell><mxCell id="t13P5igCK74DCk57Ueyg-2" value="" style="edgeStyle=orthogonalEdgeStyle;rounded=0;orthogonalLoop=1;jettySize=auto;html=1;" parent="1" source="9oeMaHV2w1BKaAyBSRpe-27" target="t13P5igCK74DCk57Ueyg-1" edge="1"><mxGeometry relative="1" as="geometry"/></mxCell><mxCell id="9oeMaHV2w1BKaAyBSRpe-27" value="english" style="whiteSpace=wrap;html=1;aspect=fixed;fillColor=#dae8fc;strokeColor=#6c8ebf;" parent="1" vertex="1"><mxGeometry x="-280" y="-520" width="80" height="80" as="geometry"/></mxCell><mxCell id="t13P5igCK74DCk57Ueyg-4" value="" style="edgeStyle=orthogonalEdgeStyle;rounded=0;orthogonalLoop=1;jettySize=auto;html=1;" parent="1" source="t13P5igCK74DCk57Ueyg-1" target="t13P5igCK74DCk57Ueyg-3" edge="1"><mxGeometry relative="1" as="geometry"/></mxCell><mxCell id="t13P5igCK74DCk57Ueyg-1" value="take a sentence from a list" style="whiteSpace=wrap;html=1;aspect=fixed;fillColor=#dae8fc;strokeColor=#6c8ebf;" parent="1" vertex="1"><mxGeometry x="-280" y="-680" width="80" height="80" as="geometry"/></mxCell><mxCell id="t13P5igCK74DCk57Ueyg-6" value="" style="edgeStyle=orthogonalEdgeStyle;rounded=0;orthogonalLoop=1;jettySize=auto;html=1;" parent="1" source="t13P5igCK74DCk57Ueyg-3" target="t13P5igCK74DCk57Ueyg-5" edge="1"><mxGeometry relative="1" as="geometry"/></mxCell><mxCell id="t13P5igCK74DCk57Ueyg-3" value="mix it up/ jumble letters" style="whiteSpace=wrap;html=1;aspect=fixed;fillColor=#dae8fc;strokeColor=#6c8ebf;" parent="1" vertex="1"><mxGeometry x="-280" y="-800" width="80" height="80" as="geometry"/></mxCell><mxCell id="t13P5igCK74DCk57Ueyg-8" value="" style="edgeStyle=orthogonalEdgeStyle;rounded=0;orthogonalLoop=1;jettySize=auto;html=1;" parent="1" source="t13P5igCK74DCk57Ueyg-5" target="t13P5igCK74DCk57Ueyg-7" edge="1"><mxGeometry relative="1" as="geometry"/></mxCell><mxCell id="t13P5igCK74DCk57Ueyg-10" value="" style="edgeStyle=orthogonalEdgeStyle;rounded=0;orthogonalLoop=1;jettySize=auto;html=1;" parent="1" source="t13P5igCK74DCk57Ueyg-5" target="t13P5igCK74DCk57Ueyg-9" edge="1"><mxGeometry relative="1" as="geometry"/></mxCell><mxCell id="t13P5igCK74DCk57Ueyg-5" value="user types what they think it is" style="whiteSpace=wrap;html=1;aspect=fixed;fillColor=#dae8fc;strokeColor=#6c8ebf;" parent="1" vertex="1"><mxGeometry x="-280" y="-920" width="80" height="80" as="geometry"/></mxCell><mxCell id="t13P5igCK74DCk57Ueyg-12" value="" style="edgeStyle=orthogonalEdgeStyle;rounded=0;orthogonalLoop=1;jettySize=auto;html=1;" parent="1" source="t13P5igCK74DCk57Ueyg-9" target="t13P5igCK74DCk57Ueyg-11" edge="1"><mxGeometry relative="1" as="geometry"/></mxCell><mxCell id="t13P5igCK74DCk57Ueyg-9" value="correct" style="whiteSpace=wrap;html=1;aspect=fixed;fillColor=#dae8fc;strokeColor=#6c8ebf;" parent="1" vertex="1"><mxGeometry x="-360" y="-1040" width="80" height="80" as="geometry"/></mxCell><mxCell id="t13P5igCK74DCk57Ueyg-14" value="" style="edgeStyle=orthogonalEdgeStyle;rounded=0;orthogonalLoop=1;jettySize=auto;html=1;" parent="1" source="t13P5igCK74DCk57Ueyg-11" target="t13P5igCK74DCk57Ueyg-13" edge="1"><mxGeometry relative="1" as="geometry"/></mxCell><mxCell id="t13P5igCK74DCk57Ueyg-11" value="make maxPP higher" style="whiteSpace=wrap;html=1;aspect=fixed;fillColor=#dae8fc;strokeColor=#6c8ebf;" parent="1" vertex="1"><mxGeometry x="-360" y="-1160" width="80" height="80" as="geometry"/></mxCell><mxCell id="t13P5igCK74DCk57Ueyg-13" value="return True" style="whiteSpace=wrap;html=1;aspect=fixed;fillColor=#dae8fc;strokeColor=#6c8ebf;direction=south;" parent="1" vertex="1"><mxGeometry x="-360" y="-1280" width="80" height="80" as="geometry"/></mxCell><mxCell id="t13P5igCK74DCk57Ueyg-16" value="" style="edgeStyle=orthogonalEdgeStyle;rounded=0;orthogonalLoop=1;jettySize=auto;html=1;" parent="1" source="t13P5igCK74DCk57Ueyg-7" target="t13P5igCK74DCk57Ueyg-15" edge="1"><mxGeometry relative="1" as="geometry"/></mxCell><mxCell id="t13P5igCK74DCk57Ueyg-7" value="incorrect" style="whiteSpace=wrap;html=1;aspect=fixed;fillColor=#dae8fc;strokeColor=#6c8ebf;" parent="1" vertex="1"><mxGeometry x="-200" y="-1040" width="80" height="80" as="geometry"/></mxCell><mxCell id="t13P5igCK74DCk57Ueyg-15" value="return False" style="whiteSpace=wrap;html=1;aspect=fixed;fillColor=#dae8fc;strokeColor=#6c8ebf;" parent="1" vertex="1"><mxGeometry x="-200" y="-1280" width="80" height="80" as="geometry"/></mxCell><mxCell id="9oeMaHV2w1BKaAyBSRpe-28" value="" style="endArrow=classic;html=1;entryX=0.5;entryY=1;entryDx=0;entryDy=0;exitX=0.5;exitY=0;exitDx=0;exitDy=0;" parent="1" source="9oeMaHV2w1BKaAyBSRpe-23" target="9oeMaHV2w1BKaAyBSRpe-27" edge="1"><mxGeometry width="50" height="50" relative="1" as="geometry"><mxPoint x="-370" y="-380" as="sourcePoint"/><mxPoint x="-320" y="-430" as="targetPoint"/></mxGeometry></mxCell><mxCell id="t13P5igCK74DCk57Ueyg-81" value="" style="edgeStyle=orthogonalEdgeStyle;rounded=0;orthogonalLoop=1;jettySize=auto;html=1;" parent="1" source="9oeMaHV2w1BKaAyBSRpe-64" target="t13P5igCK74DCk57Ueyg-80" edge="1"><mxGeometry relative="1" as="geometry"/></mxCell><mxCell id="9oeMaHV2w1BKaAyBSRpe-64" value="Battle" style="whiteSpace=wrap;html=1;aspect=fixed;comic=0;fillColor=#fff2cc;strokeColor=#d6b656;" parent="1" vertex="1"><mxGeometry x="760" y="-640" width="80" height="80" as="geometry"/></mxCell><mxCell id="t13P5igCK74DCk57Ueyg-83" value="" style="edgeStyle=orthogonalEdgeStyle;rounded=0;orthogonalLoop=1;jettySize=auto;html=1;" parent="1" source="t13P5igCK74DCk57Ueyg-80" target="t13P5igCK74DCk57Ueyg-82" edge="1"><mxGeometry relative="1" as="geometry"/></mxCell><mxCell id="t13P5igCK74DCk57Ueyg-80" value="start" style="whiteSpace=wrap;html=1;aspect=fixed;comic=0;fillColor=#dae8fc;strokeColor=#6c8ebf;" parent="1" vertex="1"><mxGeometry x="760" y="-760" width="80" height="80" as="geometry"/></mxCell><mxCell id="t13P5igCK74DCk57Ueyg-85" value="" style="edgeStyle=orthogonalEdgeStyle;rounded=0;orthogonalLoop=1;jettySize=auto;html=1;" parent="1" source="t13P5igCK74DCk57Ueyg-82" target="t13P5igCK74DCk57Ueyg-84" edge="1"><mxGeometry relative="1" as="geometry"/></mxCell><mxCell id="t13P5igCK74DCk57Ueyg-82" value="sort characters into friendly and hostile" style="whiteSpace=wrap;html=1;aspect=fixed;comic=0;fillColor=#dae8fc;strokeColor=#6c8ebf;" parent="1" vertex="1"><mxGeometry x="760" y="-880" width="80" height="80" as="geometry"/></mxCell><mxCell id="t13P5igCK74DCk57Ueyg-87" value="" style="edgeStyle=orthogonalEdgeStyle;rounded=0;orthogonalLoop=1;jettySize=auto;html=1;" parent="1" source="t13P5igCK74DCk57Ueyg-84" edge="1"><mxGeometry relative="1" as="geometry"><mxPoint x="800" y="-1040" as="targetPoint"/></mxGeometry></mxCell><mxCell id="t13P5igCK74DCk57Ueyg-84" value="Pick a random side to go first" style="whiteSpace=wrap;html=1;aspect=fixed;comic=0;fillColor=#dae8fc;strokeColor=#6c8ebf;" parent="1" vertex="1"><mxGeometry x="760" y="-1000" width="80" height="80" as="geometry"/></mxCell><mxCell id="t13P5igCK74DCk57Ueyg-89" value="" style="edgeStyle=orthogonalEdgeStyle;rounded=0;orthogonalLoop=1;jettySize=auto;html=1;exitX=0;exitY=0.5;exitDx=0;exitDy=0;" parent="1" source="t13P5igCK74DCk57Ueyg-126" target="t13P5igCK74DCk57Ueyg-88" edge="1"><mxGeometry relative="1" as="geometry"/></mxCell><mxCell id="t13P5igCK74DCk57Ueyg-127" value="" style="edgeStyle=orthogonalEdgeStyle;rounded=0;orthogonalLoop=1;jettySize=auto;html=1;" parent="1" source="t13P5igCK74DCk57Ueyg-86" target="t13P5igCK74DCk57Ueyg-126" edge="1"><mxGeometry relative="1" as="geometry"/></mxCell><mxCell id="t13P5igCK74DCk57Ueyg-129" value="" style="edgeStyle=orthogonalEdgeStyle;rounded=0;orthogonalLoop=1;jettySize=auto;html=1;exitX=0.5;exitY=0;exitDx=0;exitDy=0;" parent="1" source="t13P5igCK74DCk57Ueyg-86" target="t13P5igCK74DCk57Ueyg-128" edge="1"><mxGeometry relative="1" as="geometry"><mxPoint x="920" y="-1360" as="sourcePoint"/></mxGeometry></mxCell><mxCell id="t13P5igCK74DCk57Ueyg-86" value="Print information about the battle, and your actions" style="whiteSpace=wrap;html=1;aspect=fixed;comic=0;fillColor=#dae8fc;strokeColor=#6c8ebf;" parent="1" vertex="1"><mxGeometry x="760" y="-1360" width="80" height="80" as="geometry"/></mxCell><mxCell id="SiKXq90zOF67dUxOXDDa-4" value="" style="edgeStyle=orthogonalEdgeStyle;rounded=0;orthogonalLoop=1;jettySize=auto;html=1;" parent="1" source="t13P5igCK74DCk57Ueyg-128" target="SiKXq90zOF67dUxOXDDa-3" edge="1"><mxGeometry relative="1" as="geometry"/></mxCell><mxCell id="SiKXq90zOF67dUxOXDDa-14" value="" style="edgeStyle=orthogonalEdgeStyle;rounded=0;orthogonalLoop=1;jettySize=auto;html=1;" parent="1" source="t13P5igCK74DCk57Ueyg-128" target="SiKXq90zOF67dUxOXDDa-13" edge="1"><mxGeometry relative="1" as="geometry"/></mxCell><mxCell id="t13P5igCK74DCk57Ueyg-128" value="If it's NPC turn" style="whiteSpace=wrap;html=1;aspect=fixed;comic=0;fillColor=#dae8fc;strokeColor=#6c8ebf;" parent="1" vertex="1"><mxGeometry x="960" y="-1480" width="80" height="80" as="geometry"/></mxCell><mxCell id="SiKXq90zOF67dUxOXDDa-16" value="" style="edgeStyle=orthogonalEdgeStyle;rounded=0;orthogonalLoop=1;jettySize=auto;html=1;" parent="1" source="SiKXq90zOF67dUxOXDDa-13" target="SiKXq90zOF67dUxOXDDa-15" edge="1"><mxGeometry relative="1" as="geometry"/></mxCell><mxCell id="SiKXq90zOF67dUxOXDDa-13" value="If it's enemy turn" style="whiteSpace=wrap;html=1;aspect=fixed;comic=0;fillColor=#dae8fc;strokeColor=#6c8ebf;" parent="1" vertex="1"><mxGeometry x="1040" y="-1600" width="80" height="80" as="geometry"/></mxCell><mxCell id="SiKXq90zOF67dUxOXDDa-18" value="" style="edgeStyle=orthogonalEdgeStyle;rounded=0;orthogonalLoop=1;jettySize=auto;html=1;" parent="1" source="SiKXq90zOF67dUxOXDDa-15" target="SiKXq90zOF67dUxOXDDa-17" edge="1"><mxGeometry relative="1" as="geometry"/></mxCell><mxCell id="SiKXq90zOF67dUxOXDDa-15" value="Pick random character on ally team" style="whiteSpace=wrap;html=1;aspect=fixed;comic=0;fillColor=#dae8fc;strokeColor=#6c8ebf;" parent="1" vertex="1"><mxGeometry x="1040" y="-1720" width="80" height="80" as="geometry"/></mxCell><mxCell id="SiKXq90zOF67dUxOXDDa-17" value="Ally take damage" style="whiteSpace=wrap;html=1;aspect=fixed;comic=0;fillColor=#f8cecc;strokeColor=#b85450;" parent="1" vertex="1"><mxGeometry x="1040" y="-1840" width="80" height="80" as="geometry"/></mxCell><mxCell id="SiKXq90zOF67dUxOXDDa-8" value="" style="edgeStyle=orthogonalEdgeStyle;rounded=0;orthogonalLoop=1;jettySize=auto;html=1;" parent="1" source="SiKXq90zOF67dUxOXDDa-3" target="SiKXq90zOF67dUxOXDDa-7" edge="1"><mxGeometry relative="1" as="geometry"/></mxCell><mxCell id="SiKXq90zOF67dUxOXDDa-3" value="If it's ally turn" style="whiteSpace=wrap;html=1;aspect=fixed;comic=0;fillColor=#dae8fc;strokeColor=#6c8ebf;" parent="1" vertex="1"><mxGeometry x="880" y="-1600" width="80" height="80" as="geometry"/></mxCell><mxCell id="SiKXq90zOF67dUxOXDDa-12" value="" style="edgeStyle=orthogonalEdgeStyle;rounded=0;orthogonalLoop=1;jettySize=auto;html=1;" parent="1" source="SiKXq90zOF67dUxOXDDa-7" target="SiKXq90zOF67dUxOXDDa-11" edge="1"><mxGeometry relative="1" as="geometry"/></mxCell><mxCell id="SiKXq90zOF67dUxOXDDa-7" value="Pick random enemy" style="whiteSpace=wrap;html=1;aspect=fixed;comic=0;fillColor=#dae8fc;strokeColor=#6c8ebf;" parent="1" vertex="1"><mxGeometry x="880" y="-1720" width="80" height="80" as="geometry"/></mxCell><mxCell id="SiKXq90zOF67dUxOXDDa-11" value="enemy take damage (note not true damage)" style="whiteSpace=wrap;html=1;aspect=fixed;comic=0;fillColor=#f8cecc;strokeColor=#b85450;" parent="1" vertex="1"><mxGeometry x="880" y="-1840" width="80" height="80" as="geometry"/></mxCell><mxCell id="t13P5igCK74DCk57Ueyg-126" value="if it's players turn" style="whiteSpace=wrap;html=1;aspect=fixed;comic=0;fillColor=#dae8fc;strokeColor=#6c8ebf;" parent="1" vertex="1"><mxGeometry x="680" y="-1480" width="80" height="80" as="geometry"/></mxCell><mxCell id="t13P5igCK74DCk57Ueyg-91" value="" style="edgeStyle=orthogonalEdgeStyle;rounded=0;orthogonalLoop=1;jettySize=auto;html=1;" parent="1" source="t13P5igCK74DCk57Ueyg-88" target="t13P5igCK74DCk57Ueyg-90" edge="1"><mxGeometry relative="1" as="geometry"/></mxCell><mxCell id="t13P5igCK74DCk57Ueyg-93" value="" style="edgeStyle=orthogonalEdgeStyle;rounded=0;orthogonalLoop=1;jettySize=auto;html=1;exitX=0.5;exitY=0;exitDx=0;exitDy=0;" parent="1" source="t13P5igCK74DCk57Ueyg-88" target="t13P5igCK74DCk57Ueyg-92" edge="1"><mxGeometry relative="1" as="geometry"/></mxCell><mxCell id="t13P5igCK74DCk57Ueyg-95" value="" style="edgeStyle=orthogonalEdgeStyle;rounded=0;orthogonalLoop=1;jettySize=auto;html=1;exitX=0.5;exitY=0;exitDx=0;exitDy=0;" parent="1" source="t13P5igCK74DCk57Ueyg-88" target="t13P5igCK74DCk57Ueyg-94" edge="1"><mxGeometry relative="1" as="geometry"/></mxCell><mxCell id="t13P5igCK74DCk57Ueyg-88" value="player chooses which action to take" style="whiteSpace=wrap;html=1;aspect=fixed;comic=0;fillColor=#dae8fc;strokeColor=#6c8ebf;" parent="1" vertex="1"><mxGeometry x="520" y="-1480" width="80" height="80" as="geometry"/></mxCell><mxCell id="t13P5igCK74DCk57Ueyg-101" value="" style="edgeStyle=orthogonalEdgeStyle;rounded=0;orthogonalLoop=1;jettySize=auto;html=1;" parent="1" source="t13P5igCK74DCk57Ueyg-94" target="t13P5igCK74DCk57Ueyg-100" edge="1"><mxGeometry relative="1" as="geometry"/></mxCell><mxCell id="t13P5igCK74DCk57Ueyg-94" value="Use item" style="whiteSpace=wrap;html=1;aspect=fixed;comic=0;fillColor=#dae8fc;strokeColor=#6c8ebf;" parent="1" vertex="1"><mxGeometry x="640" y="-1640" width="80" height="80" as="geometry"/></mxCell><mxCell id="t13P5igCK74DCk57Ueyg-119" value="" style="edgeStyle=orthogonalEdgeStyle;rounded=0;orthogonalLoop=1;jettySize=auto;html=1;" parent="1" source="t13P5igCK74DCk57Ueyg-100" target="t13P5igCK74DCk57Ueyg-118" edge="1"><mxGeometry relative="1" as="geometry"/></mxCell><mxCell id="t13P5igCK74DCk57Ueyg-123" value="" style="edgeStyle=orthogonalEdgeStyle;rounded=0;orthogonalLoop=1;jettySize=auto;html=1;" parent="1" source="t13P5igCK74DCk57Ueyg-100" target="t13P5igCK74DCk57Ueyg-122" edge="1"><mxGeometry relative="1" as="geometry"/></mxCell><mxCell id="t13P5igCK74DCk57Ueyg-100" value="Use item" style="whiteSpace=wrap;html=1;aspect=fixed;comic=0;fillColor=#dae8fc;strokeColor=#6c8ebf;" parent="1" vertex="1"><mxGeometry x="640" y="-1760" width="80" height="80" as="geometry"/></mxCell><mxCell id="t13P5igCK74DCk57Ueyg-122" value="do the item's function" style="whiteSpace=wrap;html=1;aspect=fixed;comic=0;fillColor=#dae8fc;strokeColor=#6c8ebf;" parent="1" vertex="1"><mxGeometry x="720" y="-1880" width="80" height="80" as="geometry"/></mxCell><mxCell id="t13P5igCK74DCk57Ueyg-121" value="" style="edgeStyle=orthogonalEdgeStyle;rounded=0;orthogonalLoop=1;jettySize=auto;html=1;" parent="1" source="t13P5igCK74DCk57Ueyg-118" target="t13P5igCK74DCk57Ueyg-120" edge="1"><mxGeometry relative="1" as="geometry"/></mxCell><mxCell id="t13P5igCK74DCk57Ueyg-118" value="if item is healing" style="whiteSpace=wrap;html=1;aspect=fixed;comic=0;fillColor=#dae8fc;strokeColor=#6c8ebf;" parent="1" vertex="1"><mxGeometry x="560" y="-1880" width="80" height="80" as="geometry"/></mxCell><mxCell id="t13P5igCK74DCk57Ueyg-120" value="heal self" style="whiteSpace=wrap;html=1;aspect=fixed;comic=0;fillColor=#f8cecc;strokeColor=#b85450;" parent="1" vertex="1"><mxGeometry x="560" y="-2000" width="80" height="80" as="geometry"/></mxCell><mxCell id="t13P5igCK74DCk57Ueyg-97" value="" style="edgeStyle=orthogonalEdgeStyle;rounded=0;orthogonalLoop=1;jettySize=auto;html=1;" parent="1" source="t13P5igCK74DCk57Ueyg-92" target="t13P5igCK74DCk57Ueyg-96" edge="1"><mxGeometry relative="1" as="geometry"/></mxCell><mxCell id="t13P5igCK74DCk57Ueyg-92" value="Basic attack" style="whiteSpace=wrap;html=1;aspect=fixed;comic=0;fillColor=#dae8fc;strokeColor=#6c8ebf;" parent="1" vertex="1"><mxGeometry x="400" y="-1640" width="80" height="80" as="geometry"/></mxCell><mxCell id="t13P5igCK74DCk57Ueyg-96" value="enemy take damage" style="whiteSpace=wrap;html=1;aspect=fixed;comic=0;fillColor=#f8cecc;strokeColor=#b85450;" parent="1" vertex="1"><mxGeometry x="400" y="-1760" width="80" height="80" as="geometry"/></mxCell><mxCell id="t13P5igCK74DCk57Ueyg-99" value="" style="edgeStyle=orthogonalEdgeStyle;rounded=0;orthogonalLoop=1;jettySize=auto;html=1;" parent="1" source="t13P5igCK74DCk57Ueyg-90" target="t13P5igCK74DCk57Ueyg-98" edge="1"><mxGeometry relative="1" as="geometry"/></mxCell><mxCell id="t13P5igCK74DCk57Ueyg-90" value="Psychic attack" style="whiteSpace=wrap;html=1;aspect=fixed;comic=0;fillColor=#dae8fc;strokeColor=#6c8ebf;" parent="1" vertex="1"><mxGeometry x="520" y="-1640" width="80" height="80" as="geometry"/></mxCell><mxCell id="t13P5igCK74DCk57Ueyg-98" value="enemy take true damage" style="whiteSpace=wrap;html=1;aspect=fixed;comic=0;fillColor=#f8cecc;strokeColor=#b85450;" parent="1" vertex="1"><mxGeometry x="520" y="-1760" width="80" height="80" as="geometry"/></mxCell><mxCell id="t13P5igCK74DCk57Ueyg-26" value="" style="edgeStyle=orthogonalEdgeStyle;rounded=0;orthogonalLoop=1;jettySize=auto;html=1;" parent="1" target="t13P5igCK74DCk57Ueyg-28" edge="1"><mxGeometry relative="1" as="geometry"><mxPoint x="-40" y="-1040" as="sourcePoint"/></mxGeometry></mxCell><mxCell id="t13P5igCK74DCk57Ueyg-27" value="" style="edgeStyle=orthogonalEdgeStyle;rounded=0;orthogonalLoop=1;jettySize=auto;html=1;" parent="1" source="t13P5igCK74DCk57Ueyg-28" target="t13P5igCK74DCk57Ueyg-29" edge="1"><mxGeometry relative="1" as="geometry"/></mxCell><mxCell id="t13P5igCK74DCk57Ueyg-28" value="make maxPP higher" style="whiteSpace=wrap;html=1;aspect=fixed;fillColor=#dae8fc;strokeColor=#6c8ebf;" parent="1" vertex="1"><mxGeometry x="-80" y="-1160" width="80" height="80" as="geometry"/></mxCell><mxCell id="t13P5igCK74DCk57Ueyg-29" value="return True" style="whiteSpace=wrap;html=1;aspect=fixed;fillColor=#dae8fc;strokeColor=#6c8ebf;" parent="1" vertex="1"><mxGeometry x="-80" y="-1280" width="80" height="80" as="geometry"/></mxCell><mxCell id="t13P5igCK74DCk57Ueyg-30" value="" style="edgeStyle=orthogonalEdgeStyle;rounded=0;orthogonalLoop=1;jettySize=auto;html=1;" parent="1" target="t13P5igCK74DCk57Ueyg-32" edge="1"><mxGeometry relative="1" as="geometry"><mxPoint x="40" y="-920" as="sourcePoint"/><Array as="points"><mxPoint x="40" y="-940"/><mxPoint x="120" y="-940"/></Array></mxGeometry></mxCell><mxCell id="t13P5igCK74DCk57Ueyg-31" value="" style="edgeStyle=orthogonalEdgeStyle;rounded=0;orthogonalLoop=1;jettySize=auto;html=1;" parent="1" source="t13P5igCK74DCk57Ueyg-32" target="t13P5igCK74DCk57Ueyg-33" edge="1"><mxGeometry relative="1" as="geometry"/></mxCell><mxCell id="t13P5igCK74DCk57Ueyg-32" value="incorrect" style="whiteSpace=wrap;html=1;aspect=fixed;fillColor=#dae8fc;strokeColor=#6c8ebf;" parent="1" vertex="1"><mxGeometry x="80" y="-1040" width="80" height="80" as="geometry"/></mxCell><mxCell id="t13P5igCK74DCk57Ueyg-33" value="return False" style="whiteSpace=wrap;html=1;aspect=fixed;fillColor=#dae8fc;strokeColor=#6c8ebf;" parent="1" vertex="1"><mxGeometry x="80" y="-1280" width="80" height="80" as="geometry"/></mxCell><mxCell id="t13P5igCK74DCk57Ueyg-36" value="" style="edgeStyle=orthogonalEdgeStyle;rounded=0;orthogonalLoop=1;jettySize=auto;html=1;exitX=0.5;exitY=0;exitDx=0;exitDy=0;" parent="1" source="t13P5igCK74DCk57Ueyg-34" target="t13P5igCK74DCk57Ueyg-35" edge="1"><mxGeometry relative="1" as="geometry"/></mxCell><mxCell id="t13P5igCK74DCk57Ueyg-70" value="" style="edgeStyle=orthogonalEdgeStyle;rounded=0;orthogonalLoop=1;jettySize=auto;html=1;exitX=0.5;exitY=0;exitDx=0;exitDy=0;" parent="1" source="t13P5igCK74DCk57Ueyg-34" target="t13P5igCK74DCk57Ueyg-69" edge="1"><mxGeometry relative="1" as="geometry"/></mxCell><mxCell id="t13P5igCK74DCk57Ueyg-34" value="Character" style="whiteSpace=wrap;html=1;aspect=fixed;fillColor=#dae8fc;strokeColor=#6c8ebf;" parent="1" vertex="1"><mxGeometry x="880" y="-240" width="80" height="80" as="geometry"/></mxCell><mxCell id="t13P5igCK74DCk57Ueyg-76" value="" style="edgeStyle=orthogonalEdgeStyle;rounded=0;orthogonalLoop=1;jettySize=auto;html=1;exitX=0.5;exitY=0;exitDx=0;exitDy=0;" parent="1" source="t13P5igCK74DCk57Ueyg-34" target="t13P5igCK74DCk57Ueyg-75" edge="1"><mxGeometry relative="1" as="geometry"><Array as="points"><mxPoint x="920" y="-260"/><mxPoint x="1460" y="-260"/><mxPoint x="1460" y="-320"/></Array></mxGeometry></mxCell><mxCell id="t13P5igCK74DCk57Ueyg-78" value="" style="edgeStyle=orthogonalEdgeStyle;rounded=0;orthogonalLoop=1;jettySize=auto;html=1;entryX=0.5;entryY=1;entryDx=0;entryDy=0;" parent="1" target="t13P5igCK74DCk57Ueyg-77" edge="1"><mxGeometry relative="1" as="geometry"><mxPoint x="920" y="-240" as="sourcePoint"/><Array as="points"><mxPoint x="920" y="-260"/><mxPoint x="680" y="-260"/></Array></mxGeometry></mxCell><mxCell id="t13P5igCK74DCk57Ueyg-103" value="" style="edgeStyle=orthogonalEdgeStyle;rounded=0;orthogonalLoop=1;jettySize=auto;html=1;" parent="1" source="t13P5igCK74DCk57Ueyg-69" target="t13P5igCK74DCk57Ueyg-102" edge="1"><mxGeometry relative="1" as="geometry"/></mxCell><mxCell id="t13P5igCK74DCk57Ueyg-69" value="take damage" style="whiteSpace=wrap;html=1;aspect=fixed;fillColor=#f8cecc;strokeColor=#b85450;" parent="1" vertex="1"><mxGeometry x="520" y="-360" width="80" height="80" as="geometry"/></mxCell><mxCell id="t13P5igCK74DCk57Ueyg-105" value="" style="edgeStyle=orthogonalEdgeStyle;rounded=0;orthogonalLoop=1;jettySize=auto;html=1;" parent="1" source="t13P5igCK74DCk57Ueyg-102" target="t13P5igCK74DCk57Ueyg-104" edge="1"><mxGeometry relative="1" as="geometry"/></mxCell><mxCell id="t13P5igCK74DCk57Ueyg-109" value="" style="edgeStyle=orthogonalEdgeStyle;rounded=0;orthogonalLoop=1;jettySize=auto;html=1;" parent="1" source="t13P5igCK74DCk57Ueyg-102" target="t13P5igCK74DCk57Ueyg-108" edge="1"><mxGeometry relative="1" as="geometry"/></mxCell><mxCell id="t13P5igCK74DCk57Ueyg-102" value="if the random number between defence/10 and 0 is 0" style="whiteSpace=wrap;html=1;aspect=fixed;fillColor=#dae8fc;strokeColor=#6c8ebf;" parent="1" vertex="1"><mxGeometry x="520" y="-480" width="80" height="80" as="geometry"/></mxCell><mxCell id="t13P5igCK74DCk57Ueyg-111" value="" style="edgeStyle=orthogonalEdgeStyle;rounded=0;orthogonalLoop=1;jettySize=auto;html=1;" parent="1" source="t13P5igCK74DCk57Ueyg-108" target="t13P5igCK74DCk57Ueyg-110" edge="1"><mxGeometry relative="1" as="geometry"/></mxCell><mxCell id="t13P5igCK74DCk57Ueyg-108" value="False" style="whiteSpace=wrap;html=1;aspect=fixed;fillColor=#dae8fc;strokeColor=#6c8ebf;" parent="1" vertex="1"><mxGeometry x="600" y="-600" width="80" height="80" as="geometry"/></mxCell><mxCell id="t13P5igCK74DCk57Ueyg-110" value="Subtract health/2 from health" style="whiteSpace=wrap;html=1;aspect=fixed;fillColor=#dae8fc;strokeColor=#6c8ebf;" parent="1" vertex="1"><mxGeometry x="600" y="-720" width="80" height="80" as="geometry"/></mxCell><mxCell id="t13P5igCK74DCk57Ueyg-107" value="" style="edgeStyle=orthogonalEdgeStyle;rounded=0;orthogonalLoop=1;jettySize=auto;html=1;" parent="1" source="t13P5igCK74DCk57Ueyg-104" target="t13P5igCK74DCk57Ueyg-106" edge="1"><mxGeometry relative="1" as="geometry"/></mxCell><mxCell id="t13P5igCK74DCk57Ueyg-104" value="True" style="whiteSpace=wrap;html=1;aspect=fixed;fillColor=#dae8fc;strokeColor=#6c8ebf;" parent="1" vertex="1"><mxGeometry x="440" y="-600" width="80" height="80" as="geometry"/></mxCell><mxCell id="t13P5igCK74DCk57Ueyg-106" value="Subtract that health" style="whiteSpace=wrap;html=1;aspect=fixed;fillColor=#dae8fc;strokeColor=#6c8ebf;" parent="1" vertex="1"><mxGeometry x="440" y="-720" width="80" height="80" as="geometry"/></mxCell><mxCell id="t13P5igCK74DCk57Ueyg-115" value="" style="edgeStyle=orthogonalEdgeStyle;rounded=0;orthogonalLoop=1;jettySize=auto;html=1;" parent="1" source="t13P5igCK74DCk57Ueyg-77" target="t13P5igCK74DCk57Ueyg-114" edge="1"><mxGeometry relative="1" as="geometry"/></mxCell><mxCell id="t13P5igCK74DCk57Ueyg-77" value="heal" style="whiteSpace=wrap;html=1;aspect=fixed;fillColor=#f8cecc;strokeColor=#b85450;" parent="1" vertex="1"><mxGeometry x="640" y="-360" width="80" height="80" as="geometry"/></mxCell><mxCell id="t13P5igCK74DCk57Ueyg-114" value="Add health" style="whiteSpace=wrap;html=1;aspect=fixed;fillColor=#dae8fc;strokeColor=#6c8ebf;" parent="1" vertex="1"><mxGeometry x="640" y="-480" width="80" height="80" as="geometry"/></mxCell><mxCell id="t13P5igCK74DCk57Ueyg-113" value="" style="edgeStyle=orthogonalEdgeStyle;rounded=0;orthogonalLoop=1;jettySize=auto;html=1;" parent="1" source="t13P5igCK74DCk57Ueyg-75" target="t13P5igCK74DCk57Ueyg-112" edge="1"><mxGeometry relative="1" as="geometry"/></mxCell><mxCell id="t13P5igCK74DCk57Ueyg-75" value="take true damage" style="whiteSpace=wrap;html=1;aspect=fixed;fillColor=#f8cecc;strokeColor=#b85450;" parent="1" vertex="1"><mxGeometry x="400" y="-360" width="80" height="80" as="geometry"/></mxCell><mxCell id="t13P5igCK74DCk57Ueyg-112" value="Subtract health" style="whiteSpace=wrap;html=1;aspect=fixed;fillColor=#dae8fc;strokeColor=#6c8ebf;" parent="1" vertex="1"><mxGeometry x="400" y="-480" width="80" height="80" as="geometry"/></mxCell><mxCell id="t13P5igCK74DCk57Ueyg-38" value="" style="edgeStyle=orthogonalEdgeStyle;rounded=0;orthogonalLoop=1;jettySize=auto;html=1;exitX=0.5;exitY=0;exitDx=0;exitDy=0;" parent="1" source="t13P5igCK74DCk57Ueyg-35" target="t13P5igCK74DCk57Ueyg-37" edge="1"><mxGeometry relative="1" as="geometry"/></mxCell><mxCell id="t13P5igCK74DCk57Ueyg-40" value="" style="edgeStyle=orthogonalEdgeStyle;rounded=0;orthogonalLoop=1;jettySize=auto;html=1;" parent="1" source="t13P5igCK74DCk57Ueyg-35" target="t13P5igCK74DCk57Ueyg-39" edge="1"><mxGeometry relative="1" as="geometry"/></mxCell><mxCell id="t13P5igCK74DCk57Ueyg-42" value="" style="edgeStyle=orthogonalEdgeStyle;rounded=0;orthogonalLoop=1;jettySize=auto;html=1;exitX=0.5;exitY=0;exitDx=0;exitDy=0;" parent="1" source="t13P5igCK74DCk57Ueyg-35" target="t13P5igCK74DCk57Ueyg-41" edge="1"><mxGeometry relative="1" as="geometry"/></mxCell><mxCell id="t13P5igCK74DCk57Ueyg-44" value="" style="edgeStyle=orthogonalEdgeStyle;rounded=0;orthogonalLoop=1;jettySize=auto;html=1;exitX=0.5;exitY=0;exitDx=0;exitDy=0;" parent="1" source="t13P5igCK74DCk57Ueyg-35" target="t13P5igCK74DCk57Ueyg-43" edge="1"><mxGeometry relative="1" as="geometry"/></mxCell><mxCell id="t13P5igCK74DCk57Ueyg-46" value="" style="edgeStyle=orthogonalEdgeStyle;rounded=0;orthogonalLoop=1;jettySize=auto;html=1;exitX=0.5;exitY=0;exitDx=0;exitDy=0;" parent="1" source="t13P5igCK74DCk57Ueyg-35" target="t13P5igCK74DCk57Ueyg-45" edge="1"><mxGeometry relative="1" as="geometry"/></mxCell><mxCell id="t13P5igCK74DCk57Ueyg-50" value="" style="edgeStyle=orthogonalEdgeStyle;rounded=0;orthogonalLoop=1;jettySize=auto;html=1;exitX=0.5;exitY=0;exitDx=0;exitDy=0;" parent="1" source="t13P5igCK74DCk57Ueyg-35" target="t13P5igCK74DCk57Ueyg-49" edge="1"><mxGeometry relative="1" as="geometry"/></mxCell><mxCell id="t13P5igCK74DCk57Ueyg-60" value="" style="edgeStyle=orthogonalEdgeStyle;rounded=0;orthogonalLoop=1;jettySize=auto;html=1;exitX=0.5;exitY=0;exitDx=0;exitDy=0;" parent="1" source="t13P5igCK74DCk57Ueyg-35" target="t13P5igCK74DCk57Ueyg-59" edge="1"><mxGeometry relative="1" as="geometry"/></mxCell><mxCell id="t13P5igCK74DCk57Ueyg-62" value="" style="edgeStyle=orthogonalEdgeStyle;rounded=0;orthogonalLoop=1;jettySize=auto;html=1;exitX=0.5;exitY=0;exitDx=0;exitDy=0;" parent="1" source="t13P5igCK74DCk57Ueyg-35" target="t13P5igCK74DCk57Ueyg-61" edge="1"><mxGeometry relative="1" as="geometry"/></mxCell><mxCell id="t13P5igCK74DCk57Ueyg-64" value="" style="edgeStyle=orthogonalEdgeStyle;rounded=0;orthogonalLoop=1;jettySize=auto;html=1;exitX=0.5;exitY=0;exitDx=0;exitDy=0;" parent="1" source="t13P5igCK74DCk57Ueyg-35" target="t13P5igCK74DCk57Ueyg-63" edge="1"><mxGeometry relative="1" as="geometry"/></mxCell><mxCell id="t13P5igCK74DCk57Ueyg-66" value="" style="edgeStyle=orthogonalEdgeStyle;rounded=0;orthogonalLoop=1;jettySize=auto;html=1;exitX=0.5;exitY=0;exitDx=0;exitDy=0;" parent="1" source="t13P5igCK74DCk57Ueyg-35" target="t13P5igCK74DCk57Ueyg-65" edge="1"><mxGeometry relative="1" as="geometry"><mxPoint x="1390" y="-360" as="sourcePoint"/></mxGeometry></mxCell><mxCell id="t13P5igCK74DCk57Ueyg-68" value="" style="edgeStyle=orthogonalEdgeStyle;rounded=0;orthogonalLoop=1;jettySize=auto;html=1;exitX=0.5;exitY=0;exitDx=0;exitDy=0;" parent="1" source="t13P5igCK74DCk57Ueyg-35" target="t13P5igCK74DCk57Ueyg-67" edge="1"><mxGeometry relative="1" as="geometry"><mxPoint x="1400" y="-370" as="sourcePoint"/></mxGeometry></mxCell><mxCell id="t13P5igCK74DCk57Ueyg-35" value="variables" style="whiteSpace=wrap;html=1;aspect=fixed;fillColor=#dae8fc;strokeColor=#6c8ebf;" parent="1" vertex="1"><mxGeometry x="1360" y="-360" width="80" height="80" as="geometry"/></mxCell><mxCell id="t13P5igCK74DCk57Ueyg-67" value="name" style="whiteSpace=wrap;html=1;aspect=fixed;fillColor=#dae8fc;strokeColor=#6c8ebf;" parent="1" vertex="1"><mxGeometry x="1960" y="-480" width="80" height="80" as="geometry"/></mxCell><mxCell id="t13P5igCK74DCk57Ueyg-65" value="alive" style="whiteSpace=wrap;html=1;aspect=fixed;fillColor=#dae8fc;strokeColor=#6c8ebf;" parent="1" vertex="1"><mxGeometry x="760" y="-480" width="80" height="80" as="geometry"/></mxCell><mxCell id="t13P5igCK74DCk57Ueyg-63" value="equipped weapon" style="whiteSpace=wrap;html=1;aspect=fixed;fillColor=#dae8fc;strokeColor=#6c8ebf;" parent="1" vertex="1"><mxGeometry x="1840" y="-480" width="80" height="80" as="geometry"/></mxCell><mxCell id="t13P5igCK74DCk57Ueyg-61" value="Friendly" style="whiteSpace=wrap;html=1;aspect=fixed;fillColor=#dae8fc;strokeColor=#6c8ebf;" parent="1" vertex="1"><mxGeometry x="880" y="-480" width="80" height="80" as="geometry"/></mxCell><mxCell id="t13P5igCK74DCk57Ueyg-59" value="Main Character" style="whiteSpace=wrap;html=1;aspect=fixed;fillColor=#dae8fc;strokeColor=#6c8ebf;" parent="1" vertex="1"><mxGeometry x="1000" y="-480" width="80" height="80" as="geometry"/></mxCell><mxCell id="t13P5igCK74DCk57Ueyg-52" value="" style="edgeStyle=orthogonalEdgeStyle;rounded=0;orthogonalLoop=1;jettySize=auto;html=1;" parent="1" source="t13P5igCK74DCk57Ueyg-49" target="t13P5igCK74DCk57Ueyg-51" edge="1"><mxGeometry relative="1" as="geometry"/></mxCell><mxCell id="t13P5igCK74DCk57Ueyg-49" value="inventory" style="whiteSpace=wrap;html=1;aspect=fixed;fillColor=#dae8fc;strokeColor=#6c8ebf;" parent="1" vertex="1"><mxGeometry x="1720" y="-480" width="80" height="80" as="geometry"/></mxCell><mxCell id="t13P5igCK74DCk57Ueyg-54" value="" style="edgeStyle=orthogonalEdgeStyle;rounded=0;orthogonalLoop=1;jettySize=auto;html=1;" parent="1" source="t13P5igCK74DCk57Ueyg-51" target="t13P5igCK74DCk57Ueyg-53" edge="1"><mxGeometry relative="1" as="geometry"/></mxCell><mxCell id="t13P5igCK74DCk57Ueyg-56" value="" style="edgeStyle=orthogonalEdgeStyle;rounded=0;orthogonalLoop=1;jettySize=auto;html=1;" parent="1" source="t13P5igCK74DCk57Ueyg-51" target="t13P5igCK74DCk57Ueyg-55" edge="1"><mxGeometry relative="1" as="geometry"/></mxCell><mxCell id="t13P5igCK74DCk57Ueyg-51" value="inventory" style="whiteSpace=wrap;html=1;aspect=fixed;fillColor=#dae8fc;strokeColor=#6c8ebf;" parent="1" vertex="1"><mxGeometry x="1720" y="-600" width="80" height="80" as="geometry"/></mxCell><mxCell id="t13P5igCK74DCk57Ueyg-55" value="Healing" style="whiteSpace=wrap;html=1;aspect=fixed;fillColor=#dae8fc;strokeColor=#6c8ebf;" parent="1" vertex="1"><mxGeometry x="1640" y="-720" width="80" height="80" as="geometry"/></mxCell><mxCell id="t13P5igCK74DCk57Ueyg-53" value="Weapons" style="whiteSpace=wrap;html=1;aspect=fixed;fillColor=#dae8fc;strokeColor=#6c8ebf;" parent="1" vertex="1"><mxGeometry x="1800" y="-720" width="80" height="80" as="geometry"/></mxCell><mxCell id="t13P5igCK74DCk57Ueyg-45" value="defence" style="whiteSpace=wrap;html=1;aspect=fixed;fillColor=#dae8fc;strokeColor=#6c8ebf;" parent="1" vertex="1"><mxGeometry x="1600" y="-480" width="80" height="80" as="geometry"/></mxCell><mxCell id="t13P5igCK74DCk57Ueyg-43" value="HP" style="whiteSpace=wrap;html=1;aspect=fixed;fillColor=#dae8fc;strokeColor=#6c8ebf;" parent="1" vertex="1"><mxGeometry x="1120" y="-480" width="80" height="80" as="geometry"/></mxCell><mxCell id="t13P5igCK74DCk57Ueyg-41" value="maxHP" style="whiteSpace=wrap;html=1;aspect=fixed;fillColor=#dae8fc;strokeColor=#6c8ebf;" parent="1" vertex="1"><mxGeometry x="1240" y="-480" width="80" height="80" as="geometry"/></mxCell><mxCell id="t13P5igCK74DCk57Ueyg-39" value="PP" style="whiteSpace=wrap;html=1;aspect=fixed;fillColor=#dae8fc;strokeColor=#6c8ebf;" parent="1" vertex="1"><mxGeometry x="1360" y="-480" width="80" height="80" as="geometry"/></mxCell><mxCell id="t13P5igCK74DCk57Ueyg-37" value="maxPP" style="whiteSpace=wrap;html=1;aspect=fixed;fillColor=#dae8fc;strokeColor=#6c8ebf;" parent="1" vertex="1"><mxGeometry x="1480" y="-480" width="80" height="80" as="geometry"/></mxCell><mxCell id="SiKXq90zOF67dUxOXDDa-23" value="" style="edgeStyle=orthogonalEdgeStyle;rounded=0;orthogonalLoop=1;jettySize=auto;html=1;" parent="1" source="SiKXq90zOF67dUxOXDDa-21" target="SiKXq90zOF67dUxOXDDa-22" edge="1"><mxGeometry relative="1" as="geometry"/></mxCell><mxCell id="SiKXq90zOF67dUxOXDDa-27" value="" style="edgeStyle=orthogonalEdgeStyle;rounded=0;orthogonalLoop=1;jettySize=auto;html=1;" parent="1" source="SiKXq90zOF67dUxOXDDa-21" target="SiKXq90zOF67dUxOXDDa-26" edge="1"><mxGeometry relative="1" as="geometry"><Array as="points"><mxPoint x="800" y="-1140"/><mxPoint x="880" y="-1140"/></Array></mxGeometry></mxCell><mxCell id="SiKXq90zOF67dUxOXDDa-21" value="Start battle loop" style="whiteSpace=wrap;html=1;aspect=fixed;fillColor=#dae8fc;strokeColor=#6c8ebf;" parent="1" vertex="1"><mxGeometry x="760" y="-1120" width="80" height="80" as="geometry"/></mxCell><mxCell id="SiKXq90zOF67dUxOXDDa-29" value="" style="edgeStyle=orthogonalEdgeStyle;rounded=0;orthogonalLoop=1;jettySize=auto;html=1;" parent="1" source="SiKXq90zOF67dUxOXDDa-26" target="SiKXq90zOF67dUxOXDDa-28" edge="1"><mxGeometry relative="1" as="geometry"/></mxCell><mxCell id="SiKXq90zOF67dUxOXDDa-26" value="If all allies are dead" style="whiteSpace=wrap;html=1;aspect=fixed;fillColor=#dae8fc;strokeColor=#6c8ebf;" parent="1" vertex="1"><mxGeometry x="840" y="-1240" width="80" height="80" as="geometry"/></mxCell><mxCell id="OxURXv6o9Xqnu8JT5-VZ-69" value="" style="edgeStyle=orthogonalEdgeStyle;rounded=0;orthogonalLoop=1;jettySize=auto;html=1;" parent="1" source="SiKXq90zOF67dUxOXDDa-28" target="OxURXv6o9Xqnu8JT5-VZ-68" edge="1"><mxGeometry relative="1" as="geometry"/></mxCell><mxCell id="SiKXq90zOF67dUxOXDDa-28" value="You die" style="whiteSpace=wrap;html=1;aspect=fixed;fillColor=#dae8fc;strokeColor=#6c8ebf;" parent="1" vertex="1"><mxGeometry x="960" y="-1240" width="80" height="80" as="geometry"/></mxCell><mxCell id="OxURXv6o9Xqnu8JT5-VZ-71" value="" style="edgeStyle=orthogonalEdgeStyle;rounded=0;orthogonalLoop=1;jettySize=auto;html=1;" parent="1" source="OxURXv6o9Xqnu8JT5-VZ-68" target="OxURXv6o9Xqnu8JT5-VZ-70" edge="1"><mxGeometry relative="1" as="geometry"/></mxCell><mxCell id="OxURXv6o9Xqnu8JT5-VZ-68" value="You die" style="whiteSpace=wrap;html=1;aspect=fixed;fillColor=#f8cecc;strokeColor=#b85450;" parent="1" vertex="1"><mxGeometry x="1080" y="-1240" width="80" height="80" as="geometry"/></mxCell><mxCell id="OxURXv6o9Xqnu8JT5-VZ-70" value="Return False" style="whiteSpace=wrap;html=1;aspect=fixed;fillColor=#dae8fc;strokeColor=#6c8ebf;" parent="1" vertex="1"><mxGeometry x="1195" y="-1240" width="80" height="80" as="geometry"/></mxCell><mxCell id="OxURXv6o9Xqnu8JT5-VZ-51" value="" style="edgeStyle=orthogonalEdgeStyle;rounded=0;orthogonalLoop=1;jettySize=auto;html=1;" parent="1" source="SiKXq90zOF67dUxOXDDa-22" target="OxURXv6o9Xqnu8JT5-VZ-50" edge="1"><mxGeometry relative="1" as="geometry"/></mxCell><mxCell id="SiKXq90zOF67dUxOXDDa-22" value="If all enemies are dead" style="whiteSpace=wrap;html=1;aspect=fixed;fillColor=#dae8fc;strokeColor=#6c8ebf;" parent="1" vertex="1"><mxGeometry x="680" y="-1240" width="80" height="80" as="geometry"/></mxCell><mxCell id="OxURXv6o9Xqnu8JT5-VZ-55" value="" style="edgeStyle=orthogonalEdgeStyle;rounded=0;orthogonalLoop=1;jettySize=auto;html=1;" parent="1" source="OxURXv6o9Xqnu8JT5-VZ-50" target="OxURXv6o9Xqnu8JT5-VZ-54" edge="1"><mxGeometry relative="1" as="geometry"/></mxCell><mxCell id="OxURXv6o9Xqnu8JT5-VZ-50" value="Chance to get a clue and a new weapon from every enemy" style="whiteSpace=wrap;html=1;aspect=fixed;fillColor=#dae8fc;strokeColor=#6c8ebf;" parent="1" vertex="1"><mxGeometry x="560" y="-1240" width="80" height="80" as="geometry"/></mxCell><mxCell id="OxURXv6o9Xqnu8JT5-VZ-54" value="You win, return True" style="whiteSpace=wrap;html=1;aspect=fixed;fillColor=#dae8fc;strokeColor=#6c8ebf;" parent="1" vertex="1"><mxGeometry x="440" y="-1240" width="80" height="80" as="geometry"/></mxCell><mxCell id="SiKXq90zOF67dUxOXDDa-30" value="" style="endArrow=classic;html=1;entryX=0.5;entryY=1;entryDx=0;entryDy=0;" parent="1" source="SiKXq90zOF67dUxOXDDa-21" target="t13P5igCK74DCk57Ueyg-86" edge="1"><mxGeometry width="50" height="50" relative="1" as="geometry"><mxPoint x="690" y="-1210" as="sourcePoint"/><mxPoint x="740" y="-1260" as="targetPoint"/></mxGeometry></mxCell><mxCell id="qQBoI6LvPJPEByH0ZdB4-2" value="" style="edgeStyle=orthogonalEdgeStyle;rounded=0;orthogonalLoop=1;jettySize=auto;html=1;" parent="1" source="qQBoI6LvPJPEByH0ZdB4-1" target="t13P5igCK74DCk57Ueyg-116" edge="1"><mxGeometry relative="1" as="geometry"/></mxCell><mxCell id="qQBoI6LvPJPEByH0ZdB4-1" value="get transported to some othe world" style="whiteSpace=wrap;html=1;aspect=fixed;" parent="1" vertex="1"><mxGeometry x="920" y="400" width="80" height="80" as="geometry"/></mxCell><mxCell id="OxURXv6o9Xqnu8JT5-VZ-3" value="" style="edgeStyle=orthogonalEdgeStyle;rounded=0;orthogonalLoop=1;jettySize=auto;html=1;" parent="1" source="OxURXv6o9Xqnu8JT5-VZ-1" target="OxURXv6o9Xqnu8JT5-VZ-2" edge="1"><mxGeometry relative="1" as="geometry"/></mxCell><mxCell id="OxURXv6o9Xqnu8JT5-VZ-1" value="Bad ending" style="whiteSpace=wrap;html=1;aspect=fixed;fillColor=#f8cecc;strokeColor=#b85450;" parent="1" vertex="1"><mxGeometry x="1600" y="-1240" width="80" height="80" as="geometry"/></mxCell><mxCell id="OxURXv6o9Xqnu8JT5-VZ-6" value="" style="edgeStyle=orthogonalEdgeStyle;rounded=0;orthogonalLoop=1;jettySize=auto;html=1;" parent="1" source="OxURXv6o9Xqnu8JT5-VZ-2" target="OxURXv6o9Xqnu8JT5-VZ-5" edge="1"><mxGeometry relative="1" as="geometry"/></mxCell><mxCell id="OxURXv6o9Xqnu8JT5-VZ-2" value="People slowly begin disappearing and you don't know why" style="whiteSpace=wrap;html=1;aspect=fixed;" parent="1" vertex="1"><mxGeometry x="1600" y="-1360" width="80" height="80" as="geometry"/></mxCell><mxCell id="OxURXv6o9Xqnu8JT5-VZ-8" value="" style="edgeStyle=orthogonalEdgeStyle;rounded=0;orthogonalLoop=1;jettySize=auto;html=1;" parent="1" source="OxURXv6o9Xqnu8JT5-VZ-5" target="OxURXv6o9Xqnu8JT5-VZ-7" edge="1"><mxGeometry relative="1" as="geometry"/></mxCell><mxCell id="OxURXv6o9Xqnu8JT5-VZ-5" value="Continue going to class until oneday you're the only one left" style="whiteSpace=wrap;html=1;aspect=fixed;" parent="1" vertex="1"><mxGeometry x="1600" y="-1480" width="80" height="80" as="geometry"/></mxCell><mxCell id="OxURXv6o9Xqnu8JT5-VZ-7" value="Die" style="whiteSpace=wrap;html=1;aspect=fixed;" parent="1" vertex="1"><mxGeometry x="1600" y="-1600" width="80" height="80" as="geometry"/></mxCell><mxCell id="OxURXv6o9Xqnu8JT5-VZ-10" value="" style="edgeStyle=orthogonalEdgeStyle;rounded=0;orthogonalLoop=1;jettySize=auto;html=1;" parent="1" source="OxURXv6o9Xqnu8JT5-VZ-4" target="OxURXv6o9Xqnu8JT5-VZ-9" edge="1"><mxGeometry relative="1" as="geometry"/></mxCell><mxCell id="OxURXv6o9Xqnu8JT5-VZ-4" value="Die" style="whiteSpace=wrap;html=1;aspect=fixed;fillColor=#f8cecc;strokeColor=#b85450;" parent="1" vertex="1"><mxGeometry x="1840" y="-1240" width="80" height="80" as="geometry"/></mxCell><mxCell id="OxURXv6o9Xqnu8JT5-VZ-24" value="" style="edgeStyle=orthogonalEdgeStyle;rounded=0;orthogonalLoop=1;jettySize=auto;html=1;" parent="1" source="OxURXv6o9Xqnu8JT5-VZ-9" target="OxURXv6o9Xqnu8JT5-VZ-23" edge="1"><mxGeometry relative="1" as="geometry"/></mxCell><mxCell id="OxURXv6o9Xqnu8JT5-VZ-9" value="You wake up in a hospital bed with nothing" style="whiteSpace=wrap;html=1;aspect=fixed;" parent="1" vertex="1"><mxGeometry x="1840" y="-1360" width="80" height="80" as="geometry"/></mxCell><mxCell id="OxURXv6o9Xqnu8JT5-VZ-26" value="" style="edgeStyle=orthogonalEdgeStyle;rounded=0;orthogonalLoop=1;jettySize=auto;html=1;" parent="1" source="OxURXv6o9Xqnu8JT5-VZ-23" target="OxURXv6o9Xqnu8JT5-VZ-25" edge="1"><mxGeometry relative="1" as="geometry"/></mxCell><mxCell id="OxURXv6o9Xqnu8JT5-VZ-28" value="" style="edgeStyle=orthogonalEdgeStyle;rounded=0;orthogonalLoop=1;jettySize=auto;html=1;" parent="1" source="OxURXv6o9Xqnu8JT5-VZ-23" target="OxURXv6o9Xqnu8JT5-VZ-27" edge="1"><mxGeometry relative="1" as="geometry"/></mxCell><mxCell id="OxURXv6o9Xqnu8JT5-VZ-23" value="You see a sus carpet, check it?" style="whiteSpace=wrap;html=1;aspect=fixed;" parent="1" vertex="1"><mxGeometry x="1840" y="-1480" width="80" height="80" as="geometry"/></mxCell><mxCell id="OxURXv6o9Xqnu8JT5-VZ-30" value="" style="edgeStyle=orthogonalEdgeStyle;rounded=0;orthogonalLoop=1;jettySize=auto;html=1;" parent="1" source="OxURXv6o9Xqnu8JT5-VZ-27" target="OxURXv6o9Xqnu8JT5-VZ-29" edge="1"><mxGeometry relative="1" as="geometry"/></mxCell><mxCell id="OxURXv6o9Xqnu8JT5-VZ-27" value="No" style="whiteSpace=wrap;html=1;aspect=fixed;" parent="1" vertex="1"><mxGeometry x="1920" y="-1600" width="80" height="80" as="geometry"/></mxCell><mxCell id="OxURXv6o9Xqnu8JT5-VZ-29" value="Oh well end game you had your chance" style="whiteSpace=wrap;html=1;aspect=fixed;" parent="1" vertex="1"><mxGeometry x="1920" y="-1720" width="80" height="80" as="geometry"/></mxCell><mxCell id="OxURXv6o9Xqnu8JT5-VZ-32" value="" style="edgeStyle=orthogonalEdgeStyle;rounded=0;orthogonalLoop=1;jettySize=auto;html=1;" parent="1" source="OxURXv6o9Xqnu8JT5-VZ-25" target="OxURXv6o9Xqnu8JT5-VZ-31" edge="1"><mxGeometry relative="1" as="geometry"/></mxCell><mxCell id="OxURXv6o9Xqnu8JT5-VZ-25" value="Yes" style="whiteSpace=wrap;html=1;aspect=fixed;" parent="1" vertex="1"><mxGeometry x="1760" y="-1600" width="80" height="80" as="geometry"/></mxCell><mxCell id="OxURXv6o9Xqnu8JT5-VZ-31" value="You see a key and use it to exit the sus hospital" style="whiteSpace=wrap;html=1;aspect=fixed;" parent="1" vertex="1"><mxGeometry x="1760" y="-1720" width="80" height="80" as="geometry"/></mxCell><mxCell id="OxURXv6o9Xqnu8JT5-VZ-15" value="" style="edgeStyle=orthogonalEdgeStyle;rounded=0;orthogonalLoop=1;jettySize=auto;html=1;" parent="1" target="OxURXv6o9Xqnu8JT5-VZ-14" edge="1"><mxGeometry relative="1" as="geometry"><mxPoint x="1800" y="-1720" as="sourcePoint"/></mxGeometry></mxCell><mxCell id="OxURXv6o9Xqnu8JT5-VZ-17" value="" style="edgeStyle=orthogonalEdgeStyle;rounded=0;orthogonalLoop=1;jettySize=auto;html=1;" parent="1" source="OxURXv6o9Xqnu8JT5-VZ-14" target="OxURXv6o9Xqnu8JT5-VZ-16" edge="1"><mxGeometry relative="1" as="geometry"/></mxCell><mxCell id="OxURXv6o9Xqnu8JT5-VZ-14" value="You go to a new school to start anew" style="whiteSpace=wrap;html=1;aspect=fixed;" parent="1" vertex="1"><mxGeometry x="1760" y="-1840" width="80" height="80" as="geometry"/></mxCell><mxCell id="OxURXv6o9Xqnu8JT5-VZ-16" value="Start the game again" style="whiteSpace=wrap;html=1;aspect=fixed;" parent="1" vertex="1"><mxGeometry x="1760" y="-1960" width="80" height="80" as="geometry"/></mxCell><mxCell id="OxURXv6o9Xqnu8JT5-VZ-37" value="" style="edgeStyle=orthogonalEdgeStyle;rounded=0;orthogonalLoop=1;jettySize=auto;html=1;" parent="1" source="OxURXv6o9Xqnu8JT5-VZ-35" target="OxURXv6o9Xqnu8JT5-VZ-36" edge="1"><mxGeometry relative="1" as="geometry"/></mxCell><mxCell id="OxURXv6o9Xqnu8JT5-VZ-35" value="Game formula" style="whiteSpace=wrap;html=1;aspect=fixed;fillColor=#ffe6cc;strokeColor=#d79b00;" parent="1" vertex="1"><mxGeometry x="2550" y="-360" width="80" height="80" as="geometry"/></mxCell><mxCell id="OxURXv6o9Xqnu8JT5-VZ-39" value="" style="edgeStyle=orthogonalEdgeStyle;rounded=0;orthogonalLoop=1;jettySize=auto;html=1;" parent="1" source="OxURXv6o9Xqnu8JT5-VZ-36" target="OxURXv6o9Xqnu8JT5-VZ-38" edge="1"><mxGeometry relative="1" as="geometry"/></mxCell><mxCell id="OxURXv6o9Xqnu8JT5-VZ-41" value="" style="edgeStyle=orthogonalEdgeStyle;rounded=0;orthogonalLoop=1;jettySize=auto;html=1;" parent="1" source="OxURXv6o9Xqnu8JT5-VZ-36" target="OxURXv6o9Xqnu8JT5-VZ-40" edge="1"><mxGeometry relative="1" as="geometry"><Array as="points"><mxPoint x="2590" y="-500"/><mxPoint x="2680" y="-500"/></Array></mxGeometry></mxCell><mxCell id="OxURXv6o9Xqnu8JT5-VZ-36" value="While you're asleep you can go to the mirror world" style="whiteSpace=wrap;html=1;aspect=fixed;" parent="1" vertex="1"><mxGeometry x="2550" y="-480" width="80" height="80" as="geometry"/></mxCell><mxCell id="OxURXv6o9Xqnu8JT5-VZ-43" value="" style="edgeStyle=orthogonalEdgeStyle;rounded=0;orthogonalLoop=1;jettySize=auto;html=1;" parent="1" source="OxURXv6o9Xqnu8JT5-VZ-40" target="OxURXv6o9Xqnu8JT5-VZ-42" edge="1"><mxGeometry relative="1" as="geometry"/></mxCell><mxCell id="OxURXv6o9Xqnu8JT5-VZ-40" value="no" style="whiteSpace=wrap;html=1;aspect=fixed;" parent="1" vertex="1"><mxGeometry x="2640" y="-600" width="80" height="80" as="geometry"/></mxCell><mxCell id="OxURXv6o9Xqnu8JT5-VZ-42" value="School" style="whiteSpace=wrap;html=1;aspect=fixed;fillColor=#dae8fc;strokeColor=#6c8ebf;" parent="1" vertex="1"><mxGeometry x="2640" y="-720" width="80" height="80" as="geometry"/></mxCell><mxCell id="OxURXv6o9Xqnu8JT5-VZ-45" value="" style="edgeStyle=orthogonalEdgeStyle;rounded=0;orthogonalLoop=1;jettySize=auto;html=1;" parent="1" source="OxURXv6o9Xqnu8JT5-VZ-38" target="OxURXv6o9Xqnu8JT5-VZ-44" edge="1"><mxGeometry relative="1" as="geometry"/></mxCell><mxCell id="OxURXv6o9Xqnu8JT5-VZ-59" value="" style="edgeStyle=orthogonalEdgeStyle;rounded=0;orthogonalLoop=1;jettySize=auto;html=1;" parent="1" source="OxURXv6o9Xqnu8JT5-VZ-38" target="OxURXv6o9Xqnu8JT5-VZ-58" edge="1"><mxGeometry relative="1" as="geometry"/></mxCell><mxCell id="OxURXv6o9Xqnu8JT5-VZ-38" value="Yes" style="whiteSpace=wrap;html=1;aspect=fixed;" parent="1" vertex="1"><mxGeometry x="2480" y="-600" width="80" height="80" as="geometry"/></mxCell><mxCell id="OxURXv6o9Xqnu8JT5-VZ-63" value="" style="edgeStyle=orthogonalEdgeStyle;rounded=0;orthogonalLoop=1;jettySize=auto;html=1;" parent="1" source="OxURXv6o9Xqnu8JT5-VZ-58" target="OxURXv6o9Xqnu8JT5-VZ-62" edge="1"><mxGeometry relative="1" as="geometry"/></mxCell><mxCell id="OxURXv6o9Xqnu8JT5-VZ-58" value="You can use 3 of your clues to fight one boss" style="whiteSpace=wrap;html=1;aspect=fixed;" parent="1" vertex="1"><mxGeometry x="2360" y="-720" width="80" height="80" as="geometry"/></mxCell><mxCell id="OxURXv6o9Xqnu8JT5-VZ-65" value="" style="edgeStyle=orthogonalEdgeStyle;rounded=0;orthogonalLoop=1;jettySize=auto;html=1;" parent="1" source="OxURXv6o9Xqnu8JT5-VZ-62" target="OxURXv6o9Xqnu8JT5-VZ-64" edge="1"><mxGeometry relative="1" as="geometry"><Array as="points"><mxPoint x="2410" y="-860"/><mxPoint x="2410" y="-860"/></Array></mxGeometry></mxCell><mxCell id="OxURXv6o9Xqnu8JT5-VZ-62" value="Battle" style="whiteSpace=wrap;html=1;aspect=fixed;fillColor=#dae8fc;strokeColor=#6c8ebf;" parent="1" vertex="1"><mxGeometry x="2360" y="-840" width="80" height="80" as="geometry"/></mxCell><mxCell id="OxURXv6o9Xqnu8JT5-VZ-67" value="" style="edgeStyle=orthogonalEdgeStyle;rounded=0;orthogonalLoop=1;jettySize=auto;html=1;" parent="1" source="OxURXv6o9Xqnu8JT5-VZ-64" target="OxURXv6o9Xqnu8JT5-VZ-66" edge="1"><mxGeometry relative="1" as="geometry"/></mxCell><mxCell id="OxURXv6o9Xqnu8JT5-VZ-64" value="If you beat boss" style="whiteSpace=wrap;html=1;aspect=fixed;" parent="1" vertex="1"><mxGeometry x="2360" y="-960" width="80" height="80" as="geometry"/></mxCell><mxCell id="OxURXv6o9Xqnu8JT5-VZ-66" value="Good ending" style="whiteSpace=wrap;html=1;aspect=fixed;fillColor=#f8cecc;strokeColor=#b85450;" parent="1" vertex="1"><mxGeometry x="2360" y="-1080" width="80" height="80" as="geometry"/></mxCell><mxCell id="OxURXv6o9Xqnu8JT5-VZ-47" value="" style="edgeStyle=orthogonalEdgeStyle;rounded=0;orthogonalLoop=1;jettySize=auto;html=1;" parent="1" source="OxURXv6o9Xqnu8JT5-VZ-44" target="OxURXv6o9Xqnu8JT5-VZ-46" edge="1"><mxGeometry relative="1" as="geometry"/></mxCell><mxCell id="2" style="edgeStyle=orthogonalEdgeStyle;rounded=0;orthogonalLoop=1;jettySize=auto;html=1;" edge="1" parent="1" source="OxURXv6o9Xqnu8JT5-VZ-44"><mxGeometry relative="1" as="geometry"><mxPoint x="2600" y="-610" as="targetPoint"/></mxGeometry></mxCell><mxCell id="OxURXv6o9Xqnu8JT5-VZ-44" value="Look around using ascii text and other things to show story" style="whiteSpace=wrap;html=1;aspect=fixed;" parent="1" vertex="1"><mxGeometry x="2480" y="-720" width="80" height="80" as="geometry"/></mxCell><mxCell id="OxURXv6o9Xqnu8JT5-VZ-49" value="" style="edgeStyle=orthogonalEdgeStyle;rounded=0;orthogonalLoop=1;jettySize=auto;html=1;" parent="1" source="OxURXv6o9Xqnu8JT5-VZ-46" target="OxURXv6o9Xqnu8JT5-VZ-48" edge="1"><mxGeometry relative="1" as="geometry"/></mxCell><mxCell id="OxURXv6o9Xqnu8JT5-VZ-46" value="Find a monster" style="whiteSpace=wrap;html=1;aspect=fixed;" parent="1" vertex="1"><mxGeometry x="2480" y="-840" width="80" height="80" as="geometry"/></mxCell><mxCell id="OxURXv6o9Xqnu8JT5-VZ-48" value="Battle" style="whiteSpace=wrap;html=1;aspect=fixed;fillColor=#dae8fc;strokeColor=#6c8ebf;" parent="1" vertex="1"><mxGeometry x="2480" y="-960" width="80" height="80" as="geometry"/></mxCell><mxCell id="OxURXv6o9Xqnu8JT5-VZ-75" value="" style="edgeStyle=orthogonalEdgeStyle;rounded=0;orthogonalLoop=1;jettySize=auto;html=1;" parent="1" source="OxURXv6o9Xqnu8JT5-VZ-73" target="OxURXv6o9Xqnu8JT5-VZ-74" edge="1"><mxGeometry relative="1" as="geometry"/></mxCell><mxCell id="OxURXv6o9Xqnu8JT5-VZ-73" value="Good ending" style="whiteSpace=wrap;html=1;aspect=fixed;fillColor=#f8cecc;strokeColor=#b85450;" parent="1" vertex="1"><mxGeometry x="2160" y="-1240" width="80" height="80" as="geometry"/></mxCell><mxCell id="OxURXv6o9Xqnu8JT5-VZ-79" value="" style="edgeStyle=orthogonalEdgeStyle;rounded=0;orthogonalLoop=1;jettySize=auto;html=1;fontSize=10;" parent="1" source="OxURXv6o9Xqnu8JT5-VZ-74" target="OxURXv6o9Xqnu8JT5-VZ-78" edge="1"><mxGeometry relative="1" as="geometry"/></mxCell><mxCell id="OxURXv6o9Xqnu8JT5-VZ-74" value="You defeated the boss, even tho noone knows what you did, you still saved ithem" style="whiteSpace=wrap;html=1;aspect=fixed;fontSize=10;" parent="1" vertex="1"><mxGeometry x="2160" y="-1360" width="80" height="80" as="geometry"/></mxCell><mxCell id="OxURXv6o9Xqnu8JT5-VZ-78" value="You continue school with the bois and get your dream job gjjj" style="whiteSpace=wrap;html=1;aspect=fixed;fontSize=12;" parent="1" vertex="1"><mxGeometry x="2160" y="-1480" width="80" height="80" as="geometry"/></mxCell></root></mxGraphModel></diagram></mxfile>